<?xml version="1.0" encoding="utf-8"?>
<!-- Generator: Adobe Illustrator 24.0.1, SVG Export Plug-In . SVG Version: 6.00 Build 0)  -->
<svg version="1.1" id="Слой_1" xmlns="http://www.w3.org/2000/svg" xmlns:xlink="http://www.w3.org/1999/xlink" x="0px" y="0px"
	 viewBox="0 0 570.2 274.9" style="enable-background:new 0 0 570.2 274.9;" xml:space="preserve">
<style type="text/css">
	.st0{fill:#FE5F5F;}
	.st1{fill:#F1F2F2;}
	.st2{fill:#3865A7;}
	.st3{fill:#FFFFFF;}
	.st4{opacity:0.61;}
	.st5{opacity:0.61;fill:#FFFFFF;enable-background:new    ;}
	.st6{fill:#292930;}
	.st7{fill:#C0E4FF;}
	.st8{opacity:0.18;fill:#FFFFFF;enable-background:new    ;}
	.st9{opacity:0.1;fill:#FFFFFF;enable-background:new    ;}
	.st10{fill:#3A93FB;}
	.st11{opacity:0.93;fill:#FFFFFF;enable-background:new    ;}
	.st12{fill:#9FBFFF;}
	.st13{fill:#1B1B25;}
	.st14{fill:#101011;}
	.st15{fill:#282830;}
	.st16{opacity:0.89;fill:#FFFFFF;enable-background:new    ;}
	.st17{opacity:0.41;}
	.st18{opacity:0.81;}
	.st19{opacity:0.81;fill:#9FBFFF;enable-background:new    ;}
	.st20{fill:#AA0D0D;}
	.st21{fill:#50336E;}
	.st22{fill:#D9A78B;}
	.st23{fill:#B68B73;}
	.st24{fill:#3864A7;}
	.st25{fill:#073D8E;}
	.st26{fill:#073D8D;}
	.st27{fill:#E41717;}
	.st28{fill:#454240;}
	.st29{fill:#E7A585;}
	.st30{fill:#4F5587;}
	.st31{fill:#ECEBEB;}
	.st32{fill:#474D7C;}
	.st33{fill:#20233A;}
	.st34{fill:#A4775F;}
	.st35{fill:#48484D;}
	.st36{fill:#353A3D;}
	.st37{fill:#82807F;}
	.st38{fill:#2D3132;}
	.st39{fill:#DDCAC3;}
	.st40{fill:#495055;}
	.st41{fill:#434343;}
	.st42{fill:#4D6C9E;}
	.st43{fill:#F3E1D8;}
	.st44{fill:#AD9F99;}
	.st45{fill:#68737A;}
	.st46{fill:#597EB8;}
	.st47{fill:#2F4261;}
	.st48{fill:#313555;}
	.st49{fill:#EBD9D2;}
	.st50{fill:#D28853;}
	.st51{fill:#CFBDB7;}
	.st52{fill:#D5C4BD;}
	.st53{fill:#7099D8;}
	.st54{fill:#B5A5A0;}
	.st55{fill:#F8E5DD;}
	.st56{fill:#F09E4A;}
</style>
<g>
	<g>
		<g class="st4">
			<g class="st4">
				<g class="st4">
					<path class="st5" d="M311.5,67.5l3.9-1c0.8-0.2,1.6,0.3,1.8,1.1l0.8,3c1.1,0,2.2,0.2,3.3,0.5l1.6-2.7c0.4-0.7,1.3-1,2.1-0.5
						l3.5,2c0.7,0.4,1,1.3,0.5,2.1l-1.6,2.7c0.8,0.8,1.5,1.7,2,2.6l3-0.8c0.8-0.2,1.6,0.3,1.8,1.1l1,3.9c0.2,0.8-0.3,1.6-1.1,1.8
						l-3,0.8c0,1.1-0.2,2.2-0.5,3.3l2.7,1.6c0.7,0.4,1,1.3,0.5,2.1l-2,3.5c-0.4,0.7-1.3,1-2.1,0.5l-2.7-1.6c-0.8,0.8-1.7,1.5-2.6,2
						l0.8,3c0.2,0.8-0.3,1.6-1.1,1.8l-3.9,1c-0.8,0.2-1.6-0.3-1.8-1.1l-0.8-3c-1.1,0-2.2-0.2-3.3-0.5l-1.6,2.7
						c-0.4,0.7-1.3,1-2.1,0.5l-3.5-2c-0.7-0.4-1-1.3-0.5-2.1l1.6-2.7c-0.8-0.8-1.5-1.7-2-2.6l-3,0.8c-0.8,0.2-1.6-0.3-1.8-1.1
						l-1-3.9c-0.2-0.8,0.3-1.6,1.1-1.8l3-0.8c0-1.1,0.2-2.2,0.5-3.3l-2.7-1.6c-0.7-0.4-1-1.3-0.5-2.1l2-3.5c0.4-0.7,1.3-1,2.1-0.5
						l2.7,1.6c0.8-0.8,1.7-1.5,2.6-2l-0.8-3C310.2,68.5,310.7,67.7,311.5,67.5z M321.6,71.8l-0.3-0.1c-1.2-0.3-2.4-0.5-3.6-0.5
						l-0.3,0l-0.9-3.5c-0.1-0.4-0.6-0.7-1-0.6l-3.9,1c-0.4,0.1-0.7,0.6-0.6,1l0.9,3.5l-0.2,0.1c-1.1,0.6-2,1.3-2.9,2.2l-0.2,0.2
						l-3.1-1.8c-0.4-0.2-0.9-0.1-1.1,0.3l-2,3.5c-0.2,0.4-0.1,0.9,0.3,1.1l3.1,1.8l-0.1,0.3c-0.3,1.2-0.5,2.4-0.5,3.6l0,0.3
						l-3.5,0.9c-0.4,0.1-0.7,0.6-0.6,1l1,3.9c0.1,0.4,0.6,0.7,1,0.6l3.5-0.9l0.1,0.2c0.6,1.1,1.3,2,2.2,2.9l0.2,0.2l-1.8,3.1
						c-0.2,0.4-0.1,0.9,0.3,1.1l3.5,2c0.4,0.2,0.9,0.1,1.1-0.3l1.8-3.1l0.3,0.1c1.2,0.3,2.4,0.5,3.6,0.5l0.3,0l0.9,3.5
						c0.1,0.4,0.6,0.7,1,0.6l3.9-1c0.4-0.1,0.7-0.6,0.6-1l-0.9-3.5l0.2-0.1c1.1-0.6,2-1.3,2.9-2.2l0.2-0.2l3.1,1.8
						c0.4,0.2,0.9,0.1,1.1-0.3l2-3.5c0.2-0.4,0.1-0.9-0.3-1.1l-3.1-1.8l0.1-0.3c0.3-1.2,0.5-2.4,0.5-3.6l0-0.3l3.5-0.9
						c0.4-0.1,0.7-0.6,0.6-1l-1-3.9c-0.1-0.4-0.6-0.7-1-0.6L329,78l-0.1-0.2c-0.6-1.1-1.3-2-2.2-2.9l-0.2-0.2l1.8-3.1
						c0.2-0.4,0.1-0.9-0.3-1.1l-3.5-2c-0.4-0.2-0.9-0.1-1.1,0.3L321.6,71.8z M315.5,74.6c5.1-1.3,10.3,1.7,11.6,6.8
						c1.3,5.1-1.7,10.3-6.8,11.6c-5.1,1.3-10.3-1.7-11.6-6.8C307.3,81.1,310.4,75.9,315.5,74.6z M320.1,92.3
						c4.7-1.2,7.5-6.1,6.3-10.8c-1.2-4.7-6.1-7.5-10.8-6.3c-4.7,1.2-7.5,6.1-6.3,10.8C310.6,90.7,315.4,93.6,320.1,92.3z"/>
				</g>
			</g>
			<g class="st4">
				<g class="st4">
					<path class="st5" d="M236.4,38.1l3.9-1c0.8-0.2,1.6,0.3,1.8,1.1l0.8,3c1.1,0,2.2,0.2,3.3,0.5l1.6-2.7c0.4-0.7,1.3-1,2.1-0.5
						l3.5,2c0.7,0.4,1,1.3,0.5,2.1l-1.6,2.7c0.8,0.8,1.5,1.7,2,2.6l3-0.8c0.8-0.2,1.6,0.3,1.8,1.1l1,3.9c0.2,0.8-0.3,1.6-1.1,1.8
						l-3,0.8c0,1.1-0.2,2.2-0.5,3.3l2.7,1.6c0.7,0.4,1,1.3,0.5,2.1l-2,3.5c-0.4,0.7-1.3,1-2.1,0.5L252,64c-0.8,0.8-1.7,1.5-2.6,2
						l0.8,3c0.2,0.8-0.3,1.6-1.1,1.8l-3.9,1c-0.8,0.2-1.6-0.3-1.8-1.1l-0.8-3c-1.1,0-2.2-0.2-3.3-0.5l-1.6,2.7
						c-0.4,0.7-1.3,1-2.1,0.5l-3.5-2c-0.7-0.4-1-1.3-0.5-2.1l1.6-2.7c-0.8-0.8-1.5-1.7-2-2.6l-3,0.8c-0.8,0.2-1.6-0.3-1.8-1.1
						l-1-3.9c-0.2-0.8,0.3-1.6,1.1-1.8l3-0.8c0-1.1,0.2-2.2,0.5-3.3l-2.7-1.6c-0.7-0.4-1-1.3-0.5-2.1l2-3.5c0.4-0.7,1.3-1,2.1-0.5
						l2.7,1.6c0.8-0.8,1.7-1.5,2.6-2l-0.8-3C235.1,39.1,235.6,38.3,236.4,38.1z M246.5,42.4l-0.3-0.1c-1.2-0.3-2.4-0.5-3.6-0.5
						l-0.3,0l-0.9-3.5c-0.1-0.4-0.6-0.7-1-0.6l-3.9,1c-0.4,0.1-0.7,0.6-0.6,1l0.9,3.5l-0.2,0.1c-1.1,0.6-2,1.3-2.9,2.2l-0.2,0.2
						l-3.1-1.8c-0.4-0.2-0.9-0.1-1.1,0.3l-2,3.5c-0.2,0.4-0.1,0.9,0.3,1.1l3.1,1.8l-0.1,0.3c-0.3,1.2-0.5,2.4-0.5,3.6l0,0.3
						l-3.5,0.9c-0.4,0.1-0.7,0.6-0.6,1l1,3.9c0.1,0.4,0.6,0.7,1,0.6l3.5-0.9l0.1,0.2c0.6,1.1,1.3,2,2.2,2.9l0.2,0.2l-1.8,3.1
						c-0.2,0.4-0.1,0.9,0.3,1.1l3.5,2c0.4,0.2,0.9,0.1,1.1-0.3l1.8-3.1l0.3,0.1c1.2,0.3,2.4,0.5,3.6,0.5l0.3,0l0.9,3.5
						c0.1,0.4,0.6,0.7,1,0.6l3.9-1c0.4-0.1,0.7-0.6,0.6-1l-0.9-3.5l0.2-0.1c1.1-0.6,2-1.3,2.9-2.2l0.2-0.2l3.1,1.8
						c0.4,0.2,0.9,0.1,1.1-0.3l2-3.5c0.2-0.4,0.1-0.9-0.3-1.1l-3.1-1.8l0.1-0.3c0.3-1.2,0.5-2.4,0.5-3.6l0-0.3l3.5-0.9
						c0.4-0.1,0.7-0.6,0.6-1l-1-3.9c-0.1-0.4-0.6-0.7-1-0.6l-3.5,0.9l-0.1-0.2c-0.6-1.1-1.3-2-2.2-2.9l-0.2-0.2l1.8-3.1
						c0.2-0.4,0.1-0.9-0.3-1.1l-3.5-2c-0.4-0.2-0.9-0.1-1.1,0.3L246.5,42.4z M240.3,45.3c5.1-1.3,10.3,1.7,11.6,6.8
						c1.3,5.1-1.7,10.3-6.8,11.6c-5.1,1.3-10.3-1.7-11.6-6.8C232.2,51.8,235.2,46.6,240.3,45.3z M244.9,63c4.7-1.2,7.5-6.1,6.3-10.8
						c-1.2-4.7-6.1-7.5-10.8-6.3c-4.7,1.2-7.5,6.1-6.3,10.8C235.4,61.4,240.2,64.2,244.9,63z"/>
				</g>
			</g>
			<g class="st4">
				<path class="st5" d="M314.5,56.6l1.9,0.5c0,0.7,0.1,1.4,0.3,2.1l-1.6,1c-0.3,0.2-0.4,0.6-0.2,0.9l1.2,2c0.2,0.3,0.6,0.4,0.9,0.2
					l1.6-1c0.5,0.5,1.1,0.9,1.7,1.3l-0.5,1.9c-0.1,0.4,0.1,0.7,0.5,0.8l2.2,0.5c0.4,0.1,0.7-0.1,0.8-0.5l0.5-1.9
					c0.7,0,1.4-0.1,2.1-0.3l1,1.6c0.2,0.3,0.6,0.4,0.9,0.2l2-1.2c0.3-0.2,0.4-0.6,0.2-0.9l-1-1.6c0.5-0.5,0.9-1.1,1.3-1.7l1.9,0.5
					c0.4,0.1,0.7-0.1,0.8-0.5l0.5-2.2c0.1-0.4-0.1-0.7-0.5-0.8l-1.9-0.5c0-0.7-0.1-1.4-0.3-2.1l1.6-1c0.3-0.2,0.4-0.6,0.2-0.9
					l-1.2-2c-0.2-0.3-0.6-0.4-0.9-0.2l-1.6,1c-0.5-0.5-1.1-0.9-1.7-1.3l0.5-1.9c0.1-0.4-0.1-0.7-0.5-0.8l-2.2-0.5
					c-0.4-0.1-0.7,0.1-0.8,0.5l-0.5,1.9c-0.7,0-1.4,0.1-2.1,0.3l-1-1.6c-0.2-0.3-0.6-0.4-0.9-0.2l-2,1.2c-0.3,0.2-0.4,0.6-0.2,0.9
					l1,1.6c-0.5,0.5-0.9,1.1-1.3,1.7l-1.9-0.5c-0.4-0.1-0.7,0.1-0.8,0.5l-0.5,2.2C313.9,56.1,314.2,56.5,314.5,56.6z M325,51.9
					c2.8,0.7,4.5,3.5,3.8,6.3c-0.7,2.8-3.5,4.5-6.3,3.8c-2.8-0.7-4.5-3.5-3.8-6.3C319.4,53,322.2,51.2,325,51.9z"/>
			</g>
		</g>
		<path class="st6" d="M301.1,90.8L270,104.2c-2.6,1.1-5.6-0.1-6.7-2.7l-28.6-66.3c-1.1-2.6,0.1-5.6,2.7-6.7l31.1-13.4
			c2.6-1.1,5.6,0.1,6.7,2.7l28.6,66.3C304.9,86.7,303.7,89.7,301.1,90.8z"/>
		<path class="st3" d="M297.3,88.4l-26.5,11.4c-2.6,1.1-5.6-0.1-6.7-2.7l-26.1-60.6c-1.1-2.6,0.1-5.6,2.7-6.7l26.5-11.4
			c2.6-1.1,5.6,0.1,6.7,2.7l26.1,60.6C301,84.3,299.9,87.3,297.3,88.4z"/>
		<path class="st7" d="M296.5,86.7L270,98.1c-2.6,1.1-5.6,0-6.6-2.4l-24.7-57.3c-1.1-2.5,0.2-5.3,2.8-6.5L268,20.6
			c2.6-1.1,5.6,0,6.6,2.4l24.7,57.3C300.4,82.7,299.1,85.6,296.5,86.7z"/>
		<path class="st6" d="M263.7,24.2L247.9,31c-1,0.4-2.2,0-2.6-1l-0.9-2l19.4-8.5l0.9,2.1C265.1,22.6,264.7,23.8,263.7,24.2z"/>
		<path class="st3" d="M249.6,28.9c-0.4,0-0.8-0.2-0.9-0.6c-0.2-0.5,0-1.1,0.5-1.4c0.5-0.2,1.1,0,1.4,0.5c0.2,0.5,0,1.1-0.5,1.4
			C249.8,28.8,249.7,28.9,249.6,28.9z M249.6,27.1c-0.1,0-0.2,0-0.3,0.1c-0.4,0.2-0.5,0.6-0.4,1c0.2,0.4,0.6,0.5,1,0.4
			c0.4-0.2,0.5-0.6,0.4-1C250.1,27.3,249.8,27.1,249.6,27.1z"/>
		<path class="st3" d="M252.7,27.3c-0.3,0-0.6-0.2-0.7-0.5c-0.1-0.2-0.1-0.4,0-0.6c0.1-0.2,0.2-0.4,0.4-0.4l7.5-3.2
			c0.2-0.1,0.4-0.1,0.6,0c0.2,0.1,0.4,0.2,0.4,0.4c0.2,0.4,0,0.9-0.4,1.1l-7.5,3.2C252.9,27.2,252.8,27.3,252.7,27.3z M260.2,22.7
			c-0.1,0-0.1,0-0.2,0l-7.5,3.2c-0.3,0.1-0.4,0.4-0.3,0.7c0.1,0.3,0.4,0.4,0.7,0.3l7.5-3.2c0.3-0.1,0.4-0.4,0.3-0.7
			c-0.1-0.1-0.2-0.2-0.3-0.3C260.3,22.7,260.2,22.7,260.2,22.7z"/>
		<path class="st8" d="M275.3,24.6l-28.6,32.5l3.4,8L278,30.7L275.3,24.6z"/>
		<path class="st9" d="M279.9,35.5l-26.3,37.8l3.4,8l25.6-39.3L279.9,35.5z"/>
		<path class="st10" d="M300.9,18.5c2.2-6.9-1.7-14.3-8.5-16.4c-6.8-2.1-14.1,1.8-16.3,8.7c-2.2,6.9,1.7,14.3,8.5,16.4
			C291.5,29.3,298.8,25.5,300.9,18.5z"/>
		<path class="st2" d="M300.2,17c2.2-6.9-1.6-14.3-8.5-16.4c-6.8-2.1-14.1,1.8-16.3,8.7c-2.2,6.9,1.6,14.3,8.5,16.4
			C290.8,27.8,298.1,23.9,300.2,17z"/>
		<path class="st11" d="M297.4,16.1c1.7-5.3-1.3-11-6.5-12.6c-5.3-1.6-10.9,1.4-12.5,6.7c-1.7,5.3,1.3,11,6.5,12.6
			C290.1,24.4,295.7,21.4,297.4,16.1z"/>
		<path class="st12" d="M288.1,12.4c-0.3-0.1-0.4-0.4-0.3-0.6l1.7-5.6c0.1-0.3,0.4-0.4,0.6-0.3c0.3,0.1,0.4,0.4,0.3,0.6l-1.7,5.6
			C288.6,12.4,288.3,12.5,288.1,12.4z"/>
		<path class="st12" d="M287.8,13.3c0.1-0.3,0.4-0.4,0.6-0.3l4.3,1.3c0.3,0.1,0.4,0.4,0.3,0.6c-0.1,0.3-0.4,0.4-0.6,0.3l-4.3-1.3
			C287.9,13.8,287.8,13.5,287.8,13.3z"/>
		<path class="st13" d="M289.2,13.5c-0.2,0.8-1.1,1.2-1.8,1c-0.8-0.2-1.2-1.1-1-1.8c0.2-0.8,1.1-1.2,1.8-1
			C289.1,11.9,289.5,12.8,289.2,13.5z"/>
		<path class="st14" d="M305.8,80.8l-24.4-8.5c-2.3-0.8-3.4-3.2-2.7-5.5L299,8.2c0.8-2.3,3.2-3.4,5.5-2.7l24.4,8.5
			c2.3,0.8,3.4,3.2,2.7,5.5l-20.3,58.6C310.5,80.4,308,81.6,305.8,80.8z"/>
		<path class="st15" d="M305.4,79.6l-23-8c-2.1-0.7-3.2-3.1-2.5-5.3l19.8-57.2c0.8-2.2,3.1-3.4,5.2-2.7l23,8
			c2.1,0.7,3.2,3.1,2.5,5.3L310.6,77C309.8,79.2,307.5,80.4,305.4,79.6z"/>
		<path class="st3" d="M299.5,13l-17.6,50.8l28.7,10L328.3,23L299.5,13z"/>
		<path class="st16" d="M315.8,13c-0.1,0-0.1,0-0.2,0c-0.1,0-0.2-0.1-0.3-0.3c-0.1-0.1-0.1-0.3,0-0.4c0-0.1,0.1-0.2,0.3-0.3
			c0.1-0.1,0.3-0.1,0.4,0c0.1,0,0.2,0.1,0.3,0.3c0.1,0.1,0.1,0.3,0,0.4s-0.1,0.2-0.3,0.3C315.9,13,315.9,13,315.8,13z M315.8,12.3
			c0,0-0.1,0-0.1,0c-0.1,0-0.1,0.1-0.1,0.1c0,0.1,0,0.1,0,0.2c0,0.1,0.1,0.1,0.1,0.1c0.1,0,0.1,0,0.2,0c0.1,0,0.1-0.1,0.1-0.1
			c0-0.1,0-0.1,0-0.2C316,12.4,315.9,12.3,315.8,12.3C315.8,12.3,315.8,12.3,315.8,12.3z"/>
		<path class="st16" d="M317.9,15.6c0,0-0.1,0-0.1,0l-5.4-1.9c-0.2-0.1-0.3-0.3-0.2-0.5c0-0.1,0.1-0.2,0.2-0.2c0.1,0,0.2-0.1,0.3,0
			l5.4,1.9c0.1,0,0.2,0.1,0.2,0.2c0,0.1,0.1,0.2,0,0.3C318.2,15.5,318,15.6,317.9,15.6z M317.8,15.3c0.1,0,0.1,0,0.1-0.1
			c0,0,0-0.1,0-0.1c0,0,0,0-0.1-0.1l-5.4-1.9c0,0-0.1,0-0.1,0c0,0,0,0-0.1,0.1c0,0.1,0,0.1,0.1,0.1L317.8,15.3z"/>
		<g class="st17">
			<g class="st17">
				<g class="st18">
					<path class="st19" d="M300.8,15l-16.5,47.5l25.7,8.9l16.5-47.5L300.8,15z"/>
				</g>
			</g>
		</g>
		<path class="st3" d="M297.8,74.8c-0.1,0-0.3,0-0.4-0.1l-5.7-2c-0.6-0.2-0.9-0.9-0.7-1.5l0-0.1c0.1-0.3,0.3-0.5,0.6-0.7
			c0.3-0.1,0.6-0.2,0.9-0.1l5.7,2c0.6,0.2,0.9,0.9,0.7,1.5l0,0.1c-0.1,0.3-0.3,0.5-0.6,0.7C298.2,74.8,298,74.8,297.8,74.8z
			 M291.2,71.3c-0.2,0.5,0.1,1,0.5,1.1l5.7,2c0.5,0.2,1-0.1,1.1-0.6l0-0.1c0.2-0.5-0.1-1-0.6-1.1l-5.7-2c-0.2-0.1-0.5-0.1-0.7,0
			s-0.4,0.3-0.5,0.5L291.2,71.3z"/>
		<path class="st8" d="M297.9,17.7l24.6,21.8l-2.9,8.4l-23.9-24.4L297.9,17.7z"/>
		<path class="st8" d="M294.2,28.3l24.6,21.8l-2.9,8.4l-22.5-28.2L294.2,28.3z"/>
		<path class="st20" d="M254.6,16.8l-7.5,0.7c-1.6,0.1-3-1-3.2-2.6l-0.6-6.8c-0.1-1.6,1-3,2.6-3.2l7.5-0.7c1.6-0.1,3,1,3.2,2.6
			l0.6,6.8C257.4,15.2,256.2,16.7,254.6,16.8z"/>
		<path class="st0" d="M254.8,15.8l-6.9,0.6c-1.5,0.1-2.8-1-2.9-2.4l-0.6-6.3c-0.1-1.5,1-2.8,2.4-2.9l6.9-0.6c1.5-0.1,2.8,1,2.9,2.4
			l0.6,6.3C257.3,14.3,256.2,15.6,254.8,15.8z"/>
		<path class="st3" d="M248.5,13.7C248.4,13.7,248.4,13.7,248.5,13.7l-0.1,0l0-0.1c-0.1-1,0.3-2,1.2-2.6c-0.5-0.3-0.9-0.9-0.9-1.5
			c-0.1-1.2,0.7-2.2,1.9-2.3c0.6-0.1,1.1,0.1,1.6,0.4c0.4,0.4,0.7,0.9,0.8,1.4c0.1,0.6-0.1,1.2-0.6,1.7c0.9,0.4,1.6,1.3,1.7,2.3
			l0,0.1l-0.1,0.1C253.7,13.2,249,13.7,248.5,13.7z M250.7,7.4c-0.1,0-0.1,0-0.2,0c-1,0.1-1.7,1-1.6,2c0.1,0.6,0.4,1.1,1,1.4
			l0.2,0.1l-0.2,0.1c-0.8,0.5-1.3,1.4-1.2,2.3c0.7-0.1,4.3-0.5,5-0.6c-0.2-0.9-0.8-1.7-1.7-2l-0.3-0.1l0.2-0.2
			c0.5-0.4,0.7-1,0.6-1.6c-0.1-0.5-0.3-0.9-0.7-1.2C251.5,7.5,251.1,7.4,250.7,7.4z"/>
		<path class="st3" d="M302.6,93.1l-16.5-5.2c-0.4-0.1-0.8,0.1-0.9,0.5l-0.6,1.8l-0.3,0.9l-2.7,8.5l-0.2,0.7l0,0.1
			c-0.1,0.4,0.1,0.8,0.5,0.9l16.5,5.2c0.4,0.1,0.8-0.1,0.9-0.5l0-0.1l0.2-0.7l2.9-9.2l0.3-0.9l0.4-1.1
			C303.2,93.6,303,93.2,302.6,93.1z"/>
		<path class="st2" d="M290.5,95.8l1.5,1.5c0.1,0.1,0.2,0.1,0.3,0.1l9.5-2.2l0.7-0.2c0.1,0,0.1,0,0.2,0l0.4-1.1
			c0.1-0.4-0.1-0.8-0.5-0.9l-16.5-5.2c-0.4-0.1-0.8,0.1-0.9,0.5l-0.6,1.8l0.4,0.4L290.5,95.8z"/>
		<path class="st2" d="M284.4,91l-2.7,8.5l8-3.3L284.4,91z"/>
		<path class="st2" d="M299.6,105.2l2.9-9.2l-7.7,1.8L299.6,105.2z"/>
		<path class="st2" d="M298.9,105.7l-4.9-7.8l-1.4,0.3c-0.2,0-0.4,0-0.6,0c-0.2-0.1-0.3-0.2-0.5-0.3l-1.1-1.1c0,0-0.1,0-0.1,0
			l-8.4,3.4c-0.1,0-0.2,0-0.3,0c0,0-0.1,0-0.1-0.1l0,0.1c-0.1,0.4,0.1,0.8,0.5,0.9l16.5,5.2c0.4,0.1,0.8-0.1,0.9-0.5l0-0.1
			c-0.1,0-0.1,0-0.2,0C299.1,105.8,299,105.8,298.9,105.7z"/>
		<path class="st20" d="M292,47.4l-6.4,2.7c-1.4,0.6-2.9,0-3.5-1.4l-2.5-5.8c-0.6-1.4,0-2.9,1.4-3.5l6.4-2.7c1.4-0.6,2.9,0,3.5,1.4
			l2.5,5.8C294,45.2,293.4,46.8,292,47.4z"/>
		<path class="st0" d="M291.7,46.7l-6.4,2.7c-1.4,0.6-2.9,0-3.5-1.4l-2.5-5.8c-0.6-1.4,0-2.9,1.4-3.5l6.4-2.7c1.4-0.6,2.9,0,3.5,1.4
			l2.5,5.8C293.7,44.5,293.1,46.1,291.7,46.7z"/>
		<path class="st3" d="M286.2,45.1c-0.9,0-1.8-0.5-2.2-1.4c-0.5-1.2,0-2.6,1.2-3.1c0.6-0.3,1.2-0.3,1.8,0c0.6,0.2,1.1,0.7,1.3,1.3
			c0.3,0.6,0.3,1.2,0,1.8c-0.2,0.6-0.7,1.1-1.3,1.3C286.9,45,286.6,45.1,286.2,45.1z M286.2,40.6c-0.3,0-0.6,0.1-0.8,0.2
			c-1.1,0.5-1.6,1.7-1.1,2.8c0.5,1.1,1.7,1.6,2.8,1.1c0.5-0.2,0.9-0.6,1.1-1.2c0.2-0.5,0.2-1.1,0-1.6c-0.2-0.5-0.6-0.9-1.2-1.1
			C286.8,40.6,286.5,40.6,286.2,40.6z"/>
		<path class="st10" d="M329.2,46.9l-9.9-0.9c-2.1-0.2-3.7-2.1-3.5-4.2l0.8-9c0.2-2.1,2.1-3.7,4.2-3.5l9.9,0.9
			c2.1,0.2,3.7,2.1,3.5,4.2l-0.8,9C333.1,45.5,331.3,47.1,329.2,46.9z"/>
		<path class="st2" d="M330.4,45.9l-9.9-0.9c-2.1-0.2-3.7-2.1-3.5-4.2l0.8-9c0.2-2.1,2.1-3.7,4.2-3.5l9.9,0.9
			c2.1,0.2,3.7,2.1,3.5,4.2l-0.8,9C334.3,44.5,332.5,46.1,330.4,45.9z"/>
		<path class="st3" d="M325.9,41.8c-0.1,0-0.1,0-0.2,0c-0.9-0.1-1.7-0.8-1.8-1.8l0-0.2l3.9,0.4l0,0.2
			C327.6,41.2,326.8,41.8,325.9,41.8z M324.3,40.2c0.1,0.7,0.7,1.3,1.5,1.3c0.7,0.1,1.4-0.4,1.7-1L324.3,40.2z"/>
		<path class="st3" d="M328.8,40.6c-0.1,0-0.1,0-0.2,0l-5.5-0.5c-1-0.1-1.8-1-1.7-2c0.1-0.9,0.7-1.5,1.6-1.7l0.2-1.8
			c0.2-1.7,1.7-3,3.5-2.9c1.7,0.2,3,1.7,2.9,3.5l-0.2,1.8c0.8,0.3,1.3,1.1,1.2,1.9c0,0.5-0.3,0.9-0.7,1.3
			C329.6,40.5,329.2,40.6,328.8,40.6z M326.4,32c-1.5,0-2.7,1.1-2.9,2.6l-0.2,2l-0.1,0c-0.8,0.1-1.4,0.7-1.4,1.4
			c-0.1,0.9,0.6,1.6,1.4,1.7l5.5,0.5c0.4,0,0.8-0.1,1.1-0.4c0.3-0.3,0.5-0.6,0.6-1.1c0.1-0.8-0.4-1.5-1.1-1.7l-0.1,0l0.2-2
			c0.1-1.6-1-3-2.6-3.2C326.6,32,326.5,32,326.4,32z"/>
		<path class="st20" d="M271.5,75.9l-35.3,15.5c-1.6,0.7-3.5,0-4.2-1.6l-6.1-14c-0.7-1.6,0-3.5,1.6-4.2l35.3-15.5
			c1.6-0.7,3.5,0,4.2,1.6l6.1,14C273.8,73.3,273.1,75.2,271.5,75.9z"/>
		<path class="st0" d="M271.5,73.6l-35.9,15.8c-1.1,0.5-2.4,0-2.9-1.1l-6.1-13.9c-0.5-1.1,0-2.4,1.1-2.9l35.9-15.8
			c1.1-0.5,2.4,0,2.9,1.1l6.1,13.9C273.1,71.8,272.6,73.1,271.5,73.6z"/>
		<path class="st3" d="M242.1,69.3l-10.6,4.7l4.7,10.6l10.6-4.7L242.1,69.3z"/>
		<path class="st3" d="M246.7,70.3c-0.1,0-0.2-0.1-0.3-0.2c-0.1-0.1,0-0.3,0.1-0.4l15.8-6.9c0.1-0.1,0.3,0,0.4,0.1
			c0.1,0.1,0,0.3-0.1,0.4l-15.8,6.9C246.8,70.3,246.7,70.3,246.7,70.3z"/>
		<path class="st3" d="M250.2,78.3c-0.1,0-0.2-0.1-0.3-0.2c-0.1-0.1,0-0.3,0.1-0.4l15.8-6.9c0.1-0.1,0.3,0,0.4,0.1
			c0.1,0.1,0,0.3-0.1,0.4l-15.8,6.9C250.3,78.3,250.3,78.3,250.2,78.3z"/>
		<path class="st3" d="M248.5,74.3c-0.1,0-0.2-0.1-0.3-0.2c-0.1-0.1,0-0.3,0.1-0.4l8.4-3.7c0.1-0.1,0.3,0,0.4,0.1
			c0.1,0.1,0,0.3-0.1,0.4l-8.4,3.7C248.5,74.3,248.5,74.3,248.5,74.3z"/>
		<path class="st3" d="M258.7,69.8c-0.1,0-0.2-0.1-0.3-0.2c-0.1-0.1,0-0.3,0.1-0.4l5.5-2.4c0.1-0.1,0.3,0,0.4,0.1
			c0.1,0.1,0,0.3-0.1,0.4l-5.5,2.4C258.8,69.8,258.8,69.8,258.7,69.8z"/>
		<path class="st20" d="M332.1,81.1c0.1,3-3.2,9.5-4.8,12.2c-0.3,0.5-1.5,1.1-2.4,0c-1.9-2.5-6.3-8.7-6.4-11.7
			c-0.2-3.8,2.8-6.9,6.5-7.1C328.8,74.4,332,77.3,332.1,81.1z"/>
		<path class="st0" d="M332.9,80.7c0.1,3-3.9,9.9-5.6,12.6c-0.3,0.5-1.1,0.6-1.5,0.1c-1.9-2.5-6.5-9.1-6.6-12.1
			c-0.2-3.8,2.8-6.9,6.5-7.1C329.5,74,332.7,76.9,332.9,80.7z"/>
		<path class="st3" d="M330.1,80.7c0.1,2.2-1.6,4.1-3.9,4.2c-2.2,0.1-4.1-1.6-4.2-3.9c-0.1-2.2,1.6-4.1,3.9-4.2
			C328.1,76.7,330,78.5,330.1,80.7z"/>
	</g>
	<g>
		<path class="st21" d="M14.9,38.4h-1.6l1.9-1.7L14.9,38.4z"/>
		<path class="st22" d="M2.6,79.1h42.2v-41L29.2,16.8L14.3,37.1V48L2.6,59.7V79.1z"/>
		<path class="st23" d="M44.8,73.5H2.6v0.7h42.2V73.5z"/>
		<path class="st23" d="M58.4,38.1H44.8v41h13.6V38.1z"/>
		<path class="st24" d="M28.9,16.4h14l16.5,21.7H44.8L28.9,16.4z"/>
		<path class="st25" d="M47.7,38.1L31.2,16.4H30l16.5,21.7H47.7z"/>
		<path class="st25" d="M50.2,38.1L33.7,16.4h-1.2l16.5,21.7H50.2z"/>
		<path class="st25" d="M52.6,38.1L36.1,16.4h-1.2l16.5,21.7H52.6z"/>
		<path class="st25" d="M55,38.1L38.5,16.4h-1.2l16.5,21.7H55z"/>
		<path class="st25" d="M57.5,38.1L41,16.4h-1.2l16.5,21.7H57.5z"/>
		<path class="st25" d="M59.3,38.1L42.9,16.4h-0.7l16.5,21.7H59.3z"/>
		<path class="st24" d="M40.3,12h-2.4v6.1h2.4V12z"/>
		<path class="st26" d="M37.9,18.1l-1.1-1.6h-1.1V12h2.2V18.1z"/>
		<path class="st24" d="M14,38.4h-1.2l16.1-22l0.6,0.8L14,38.4z"/>
		<path class="st23" d="M14.3,47.3L0,61.3l2.1,0l0.5-0.5v18.3h11.7V49V47.3z"/>
		<path class="st3" d="M23.7,44h-4v11.1h4V44z"/>
		<path class="st3" d="M31.2,44h-4v11.1h4V44z"/>
		<path class="st3" d="M38.8,44h-4v11.1h4V44z"/>
		<path class="st3" d="M23.7,60h-4V71h4V60z"/>
		<path class="st3" d="M31.2,60h-4V71h4V60z"/>
		<path class="st3" d="M38.8,60h-4V71h4V60z"/>
		<path class="st3" d="M32.3,32.8c0.4-1.6-0.6-3.2-2.2-3.5c-1.6-0.4-3.2,0.6-3.5,2.2c-0.4,1.6,0.6,3.2,2.2,3.5
			C30.4,35.3,32,34.4,32.3,32.8z"/>
		<path class="st21" d="M54.2,13.1L51,16.3h5.3L54.2,13.1z"/>
		<path class="st22" d="M54.2,13.1v64.9h27.5c0,0,0-52.6,0-53.8L62.5,4.9L54.2,13.1z"/>
		<path class="st23" d="M104.4,24.3H81.6v53.8h22.8V24.3z"/>
		<path class="st0" d="M62.5,4.9h21.8l20.2,19.4H81.6L62.5,4.9z"/>
		<path class="st27" d="M85.5,6.1H63.7l0.5,0.5h21.9L85.5,6.1z"/>
		<path class="st27" d="M89.1,9.5h-22l0.5,0.5h22L89.1,9.5z"/>
		<path class="st27" d="M92.7,13H70.5l0.5,0.5h22.2L92.7,13z"/>
		<path class="st27" d="M96.2,16.4H73.9l0.5,0.5h22.4L96.2,16.4z"/>
		<path class="st27" d="M99.8,19.8H77.3l0.5,0.5h22.6L99.8,19.8z"/>
		<path class="st27" d="M103.4,23.3H80.6l0.5,0.5H104L103.4,23.3z"/>
		<path class="st0" d="M74.1,0h-2.6v6.1h2.6V0z"/>
		<path class="st27" d="M71.4,6.1l-1.2-1.2H69V0h2.4V6.1z"/>
		<path class="st23" d="M81.6,75.3H51.4V80h30.2V75.3z"/>
		<path class="st23" d="M81.6,80h24.6v-4.7H81.6V80z"/>
		<path class="st3" d="M64.7,19.5h-4v-5.4c0-1.1,0.9-2,2-2c1.1,0,2,0.9,2,2V19.5z"/>
		<path class="st3" d="M60.7,37.6H57v-9.8c0-1,0.8-1.8,1.8-1.8s1.8,0.8,1.8,1.8V37.6z"/>
		<path class="st3" d="M66.1,37.6h-3.6v-9.8c0-1,0.8-1.8,1.8-1.8s1.8,0.8,1.8,1.8V37.6z"/>
		<path class="st3" d="M71.6,37.6h-3.6v-9.8c0-1,0.8-1.8,1.8-1.8s1.8,0.8,1.8,1.8V37.6z"/>
		<path class="st3" d="M77.1,37.6h-3.6v-9.8c0-1,0.8-1.8,1.8-1.8s1.8,0.8,1.8,1.8V37.6z"/>
		<path class="st3" d="M60.7,53.1H57v-9.8c0-1,0.8-1.8,1.8-1.8s1.8,0.8,1.8,1.8V53.1z"/>
		<path class="st3" d="M66.1,53.1h-3.6v-9.8c0-1,0.8-1.8,1.8-1.8s1.8,0.8,1.8,1.8V53.1z"/>
		<path class="st3" d="M71.6,53.1h-3.6v-9.8c0-1,0.8-1.8,1.8-1.8s1.8,0.8,1.8,1.8V53.1z"/>
		<path class="st3" d="M77.1,53.1h-3.6v-9.8c0-1,0.8-1.8,1.8-1.8s1.8,0.8,1.8,1.8V53.1z"/>
		<path class="st3" d="M60.7,67.9H57v-9.8c0-1,0.8-1.8,1.8-1.8s1.8,0.8,1.8,1.8V67.9z"/>
		<path class="st3" d="M66.1,67.9h-3.6v-9.8c0-1,0.8-1.8,1.8-1.8s1.8,0.8,1.8,1.8V67.9z"/>
		<path class="st3" d="M71.6,67.9h-3.6v-9.8c0-1,0.8-1.8,1.8-1.8s1.8,0.8,1.8,1.8V67.9z"/>
		<path class="st3" d="M77.1,67.9h-3.6v-9.8c0-1,0.8-1.8,1.8-1.8s1.8,0.8,1.8,1.8V67.9z"/>
		<path class="st27" d="M51,16.3L62.5,4.9L63,5.4L52.1,16.3H51z"/>
		<path class="st3" d="M88.5,30.3h-2.7v7.3h2.7V30.3z"/>
		<path class="st3" d="M92.5,30.3h-2.7v7.3h2.7V30.3z"/>
		<path class="st3" d="M96.4,30.3h-2.7v7.3h2.7V30.3z"/>
		<path class="st3" d="M100.4,30.3h-2.7v7.3h2.7V30.3z"/>
		<path class="st3" d="M88.5,41.5h-2.7v7.3h2.7V41.5z"/>
		<path class="st3" d="M92.5,41.5h-2.7v7.3h2.7V41.5z"/>
		<path class="st3" d="M96.4,41.5h-2.7v7.3h2.7V41.5z"/>
		<path class="st3" d="M100.4,41.5h-2.7v7.3h2.7V41.5z"/>
		<path class="st3" d="M88.5,52.6h-2.7v7.3h2.7V52.6z"/>
		<path class="st3" d="M92.5,52.6h-2.7v7.3h2.7V52.6z"/>
		<path class="st3" d="M96.4,52.6h-2.7v7.3h2.7V52.6z"/>
		<path class="st3" d="M100.4,52.6h-2.7v7.3h2.7V52.6z"/>
		<path class="st3" d="M88.5,62.7h-2.7V70h2.7V62.7z"/>
		<path class="st3" d="M92.5,62.7h-2.7V70h2.7V62.7z"/>
		<path class="st3" d="M96.4,62.7h-2.7V70h2.7V62.7z"/>
		<path class="st3" d="M100.4,62.7h-2.7V70h2.7V62.7z"/>
	</g>
	<g>
		<path class="st28" d="M505.1,4.5c0,0,2.8-0.3,3.8,2.4c1,2.7,1.9,3.6,2.1,5c0.5,5.7,3.1,4.4,2.4,7.7c-0.7,3.3-1.3,3.8-1.3,3.8
			l-6.4-1.2l-6.4,0c0,0,2.5-1.3,2-3.9c-0.6-2.7-2-7.1-1.2-10.1C500.9,5.1,503.5,4.8,505.1,4.5z"/>
		<path class="st2" d="M503.4,92.6c0,0-2,2.7-1.7,3.2c0.3,0.4,2.5,0.5,3.8,0c1.3-0.5,1.4-3.8,2-5.2c0.3-0.6-0.3-2.3-1-2.4
			c-0.8-0.1-1.6,0.3-1.6,0.3S505.5,90.5,503.4,92.6z"/>
		<path class="st29" d="M504.7,88.5c0,0-0.2,1.3-0.4,2.2c-0.3,0.9-1.6,3-1.5,3.3c0.1,0.3,1.8,0.5,2.5-0.2c0.7-0.7,1.2-2.5,1.3-3.7
			c0.1-1.1-0.2-1.9-0.2-1.9S505.4,87.8,504.7,88.5z"/>
		<path class="st30" d="M507.4,90.7v2.9H507v-2.3L507.4,90.7z"/>
		<path class="st2" d="M508.6,92.6c0,0-2,2.7-1.7,3.2c0.3,0.4,2.5,0.5,3.8,0c1.3-0.5,1.4-3.8,2-5.2c0.3-0.6-0.3-2.3-1-2.4
			c-0.8-0.1-1.6,0.3-1.6,0.3S510.7,90.5,508.6,92.6z"/>
		<path class="st29" d="M510,88.5c0,0-0.2,1.3-0.4,2.2c-0.3,0.9-1.6,3-1.5,3.3c0.1,0.3,1.8,0.5,2.5-0.2c0.7-0.7,1.2-2.5,1.3-3.7
			c0.1-1.1-0.2-1.9-0.2-1.9S510.6,87.8,510,88.5z"/>
		<path class="st30" d="M512.6,90.7v2.9h-0.4v-2.3L512.6,90.7z"/>
		<path class="st29" d="M499.7,43c0,0-1.5,8.3-1.9,10.4c-0.4,2.1-1.5,12.2-1.7,13.9c-0.1,1.7,3.7,10,4,10.5c4,9.5,4.5,11.7,4.5,11.7
			s1.3,0.8,1.9-0.2c0.2-0.3-2.5-11.2-2.9-14.2c-0.4-2.8-1.5-7.2-1.2-8.2c0.3-1,2.9-14.6,3.4-15.2c0.5-0.6,1.2,0.3,1.5,1.6
			c0.3,1.3,0.9,12.2,1.3,13.6c0.4,1.4,0.1,6.1,0.3,8.4c0.2,2.4,1.1,13.4,1.1,13.4s1.6,0.3,1.8,0c0.2-0.3,1.6-12.3,1.6-15.1
			c0-2.8,0.1-6.7,0.2-7.9c0.8-11.7,2.2-13.2-0.3-21.6C507.1,23.7,499.7,43,499.7,43z"/>
		<path class="st0" d="M499.7,43c0,0-1.5,8.3-1.9,10.4c-0.4,2.1-1.5,12.2-1.7,13.9c-0.1,1.7,3.6,10,3.7,10.6
			c0.1,0.6,3.1,9.4,3.1,9.4s3.1-0.1,3.9-0.9c0.2-0.2-2.8-8.3-3.3-11.3c-0.4-2.8-1.5-7.2-1.2-8.2c0.3-1,2.9-14.6,3.4-15.2
			c0.5-0.6,1.2,0.3,1.5,1.6c0.3,1.3,0.9,12.2,1.3,13.6c0.4,1.4,0.1,6.1,0.3,8.4c0.2,2.4-0.2,10.8-0.2,10.8s4,0.2,4.2-0.1
			c0.2-0.3,0.5-9.5,0.5-12.4c0-2.8,0.1-6.7,0.2-7.9c0.8-11.7,2.2-13.2-0.3-21.6C507.1,23.7,499.7,43,499.7,43z"/>
		<path class="st2" d="M513.8,45.8c0.2-0.1-1.7-6.3-2-8.2c-0.3-1.7-1.5-3.2-0.4-6.1C512,29.9,512,28,512,28s1.7,3.8,1.9,4.8
			c0.2,1-5.9-0.8-6-0.7c-0.2,0.3-0.3,1.9-0.3,2.5c0,0.5,8.9,2.6,9.9,0.7c0.3-0.5-1.6-10.6-2.9-11.9c-2-2.2-7.4-4.1-7.4-4.1
			s-1.5-0.8-4,0c-2.6,0.8-6.2,3.3-6.8,4c-0.6,0.7-3.1,10.5-3.3,11.8c-0.2,1.2-0.1,3.7,2.6,3.4l7.4-1.7l-0.5-2.3l-5.5,0.4
			c-1.1,0.2-0.6-0.8-0.4-1.4C496.7,33,498,28,498,28c-0.1,1.4,1,5.9,1.5,7.5c0.5,1.6-0.7,10-0.7,10.9
			C498.8,46.5,503.2,50.1,513.8,45.8z"/>
		<path class="st29" d="M508.4,19.7c0,0-1.8,3.8-3.3,4.9c0,0-2.7-4.1-2.6-5.1C502.4,19.5,505.5,18.2,508.4,19.7z"/>
		<path class="st29" d="M508.4,32.4c0,0-0.8-0.3-1.1-0.6c-0.2-0.3-1-0.5-1.5-0.3c-0.6,0.2-0.2,2.5-0.2,2.5l2.9,0.4L508.4,32.4z"/>
		<path class="st29" d="M503.2,34.2c0,0,0.3-1.5,0.2-1.8c-0.1-0.3,0.5-0.6,0.6,0.1c0.1,0.7,0.1,1.1,0.1,1.1L503.2,34.2z"/>
		<path class="st31" d="M504.4,35.3l2.1-0.1c0.3,0,0.5-0.2,0.5-0.5L507,30c0-0.3-0.2-0.5-0.5-0.5l-2.5,0.1c-0.3,0-0.5,0.3-0.5,0.6
			l0.4,4.7C503.9,35.1,504.1,35.3,504.4,35.3z"/>
		<path class="st29" d="M503.1,34.3c0,0,0-0.4,0.8-0.8c1.1-0.5,2.6-1.1,2.9-0.9c0.4,0.2,0.2,0.5-0.5,0.7c-0.7,0.2-0.9,0.3-0.9,0.3
			s1.4-0.1,1.7,0c0.3,0.2,0.3,0.5,0.1,0.6c-0.2,0.1-0.8,0.1-0.8,0.1s0.6,0,0.6,0.3c0,0.2,0.1,0.4-0.5,0.5c0,0,0.4,0.4-0.2,0.7
			c-0.6,0.3-1.6,0.5-2.1,0.6c-1.1,0.2-3.5,0-3.5,0l1-1.7c0,0,0.5,0,0.9-0.1C503.2,34.5,503.1,34.3,503.1,34.3z"/>
		<path class="st32" d="M502.5,34.5l0.5,2.3l-4.7,1.1l-0.2-3L502.5,34.5z"/>
		<path class="st32" d="M507.9,32.1c0,0-0.4,0.8-0.3,2.5c0,0,2.9,1.1,5.2,1.3V33L507.9,32.1z"/>
		<path class="st33" d="M502.9,36.7l-3.3,1.8c0-0.4,0-0.7,0-1.1L502.9,36.7z"/>
		<path class="st33" d="M511.6,36.9c-2.6-1.1-3.7-2-4-2.3c-0.1-0.1-0.1-0.1-0.1-0.1l3.8,1.1C511.4,36.1,511.5,36.5,511.6,36.9z"/>
		<path class="st29" d="M505.5,6.1c0,0,3.7,0.5,3.1,6c-0.5,5.4-3.8,5-4,5c-0.2,0-3.3,0.1-3.5-6.5C501.1,10.6,501,5.7,505.5,6.1z"/>
		<path class="st29" d="M507.1,16.1c0,0-0.2,2.8,0.3,3.7c0.5,0.8-0.5,2-2.5,1.6c-2.1-0.4-2-1.6-2-1.6s0.6-1.7,0.4-3.1
			C503.2,15.3,507.1,16.1,507.1,16.1z"/>
		<path class="st28" d="M505.1,8.1c0,0,1.7,1.8,2.5,2.7c0.8,0.9,0.9,2.7,0.9,2.7s1.3-1.6,0.8-3.6c-0.6-1.9-1.9-5.6-5.3-4.5
			c-3.4,1.1-3.5,6.2-3.1,8.7C500.9,14.1,502.4,8.6,505.1,8.1z"/>
		<path class="st34" d="M503.6,16.8c0,0,1.6,0.7,3.1-0.4c0,0-0.4,0.9-1.5,1C504.1,17.6,503.6,16.8,503.6,16.8z"/>
		<path class="st28" d="M503.1,17.8c0,0-5.1,4.5-3.7,7.3c1.1,2.4,5.1,0.9,4.4-1.6C503.1,21,503.1,17.8,503.1,17.8z"/>
		<path class="st35" d="M504.5,30.5c0,0.2-0.1,0.3-0.3,0.3c-0.2,0-0.3-0.1-0.3-0.3c0-0.2,0.1-0.3,0.3-0.3
			C504.3,30.1,504.5,30.3,504.5,30.5z"/>
		<path class="st36" d="M526.9,92.2c0,0-1,1.6-2.5,1.9c-1.5,0.3-2.9,0.9-2.9,1.8c0,0.9,4.2,1.5,5.9,0.5c2.5-1.4,2.8-1,3-1.7
			c0.3-0.7-0.3-2.6-0.3-2.8C530.1,91.7,526.9,92.2,526.9,92.2z"/>
		<path class="st37" d="M527.1,91.4c0,0-0.2,0.8-0.2,0.8c0,0,3.3,0.4,3.2-0.2c-0.1-0.5-0.2-1-0.2-1L527.1,91.4z"/>
		<path class="st36" d="M537.9,92.1c0,0-0.7,1.5-2,2c-1.4,0.5-2.5,1.2-2.4,2.1c0,0.9,3.3,1.8,5.7,0.1c1.5-1.1,2-1.1,2.2-1.8
			c0.2-0.7-0.4-2.5-0.4-2.7C541,91.5,537.9,92.1,537.9,92.1z"/>
		<path class="st37" d="M537.9,91.3c0,0,0,0.8,0,0.8c0,0,3.2,0.3,3.1-0.3c-0.1-0.5-0.3-1-0.3-1L537.9,91.3z"/>
		<path class="st38" d="M526.3,45.6c0,0-2.9,13-3.6,16.9c-0.6,3.4-1,6.9-0.8,9.3c0.3,3,4.6,18.6,4.4,19.5c-0.2,0.9,4.5,0.1,4.5,0.1
			s-3.2-17.4-2.6-20.6c0.5-2.4,4.7-18.3,5.3-17.5c0.6,0.8,1.4,15,1.9,17.4c0.5,2.4,1.9,21,1.9,21s3.3,0.5,4.1-0.3
			c0,0,0.4-15.9,0.1-20.3c-0.1-1.7,2-20.2-0.7-27.7C539.5,39.5,526.3,45.6,526.3,45.6z"/>
		<path class="st39" d="M513.5,33.8c2.1-0.3,8.7,2.6,9.3,2.4c0.4-0.2,1.4-3.3,2.1-5.7c0.4-1.4,0.7-2.6,0.8-2.7l0,0
			c0,0.1-0.1,1.1,0,2.6c0,0.1,0,0.2,0,0.3c0,0,0,0,0,0.1c0.1,0.5,0.2,1,0.3,1.6c0.2,0.8,0.3,1.9,0.3,3v0c0,0,0,0,0,0
			c0,0,0,0.1,0,0.1c0,0,0,0,0,0c0.1,2-0.1,4.2-0.1,5.4c-0.1,1.8,0.5,2.6,0.5,2.7l0.6-0.1l0.5-0.1l0,0l0.6-0.1l2.4-0.3l0.9-0.1l0.2,0
			l1.5-0.2l4.3-0.6l0.5-0.1l0.2,0l1.6-0.2l0.7-0.1h0c0,0,0.6-4.4,0.7-6.8c0-2.2,1.2-6.6,1.4-7.3c0,0,0,0,0,0c0,0,0,0,0,0
			c0,0,0,0,0,0c0,0,0,0,0,0c0,0,0,0,0,0c0,0,0,0,0,0c0,0,0,0,0,0s3.5,3.7,4.2,5.3c0.2,0.5,0.8,1.8,1.6,3.4c0.5-1,0.9-1.8,0.9-2
			c0,0,0,0,0-0.1c-0.1-1.6-1.7-8-3-12.2c-1-2-1.9-3.7-2.2-3.9c-0.4-0.3-2.2-1.1-3.8-1.7c-0.1,0-0.1,0-0.2-0.1
			c-0.1-0.1-0.3-0.1-0.4-0.2c-0.1,0-0.1-0.1-0.2-0.1c0,0-0.1,0-0.1,0c0,0-0.1,0-0.1,0c-0.8-0.3-1.4-0.5-1.5-0.5c0,0-0.1,0-0.1,0
			c-0.1,0-0.1,0-0.2,0c-1,0.1-3.8,0.3-4.8,0.4c-0.2,0-0.3,0-0.3,0c0,0,0,0,0,0s-0.4,0.2-1.1,0.5l-0.1,0c-0.4,0.2-0.9,0.4-1.4,0.7
			c-1,0.5-2,1.1-2.9,1.6c-0.9,0.4-2.1,1-2.2,1.1l-4.4,12.7L513,31L513.5,33.8z"/>
		<path class="st40" d="M526.7,43.6c0,0-0.3,0.4-0.4,2c0,0,13.2-1.5,14.6-2.2c0,0,0.1-1.8-0.2-1.8C540.3,41.6,526.7,43.6,526.7,43.6
			z"/>
		<path class="st29" d="M538,15c0,2.1-4.1,3.2-4.1,3.2s-1.7-2.1-1.3-2.3c0.2-0.1,0.2-0.4,0.2-0.7c0-0.3,0-0.7,0-0.9
			c0-0.1,0-0.2,0-0.2s0.6-0.6,1.3-1.3c1.3-1.3,3-2.9,3-2.2c0,0,0,0.1,0,0.1C536.8,11.9,538,15,538,15z"/>
		<path class="st36" d="M537.6,41.9c0,0,0.3,1.8,0.3,2.3l0.6-0.1c0,0-0.2-1.9-0.3-2.2L537.6,41.9z"/>
		<path class="st36" d="M527.8,43.4c0,0-0.2,1.7-0.2,2.3l0.6-0.1c0,0,0.1-2.1,0.2-2.3L527.8,43.4z"/>
		<path class="st34" d="M536.4,11.9c0,0-0.2,0.3-0.5,0.6c-0.6,0.8-1.8,2.1-3.1,2.6c0-0.3,0-0.7,0-0.9c-0.1,0-0.3,0-0.4,0
			c0.4-0.6,0.9-1.3,0.9-1.3l0.8-0.2L536.4,11.9z"/>
		<path class="st29" d="M537.2,10.4c-0.3,0.8-0.7,1.3-0.8,1.5c-0.1,0.1-0.2,0.4-0.5,0.6c-0.7,0.7-1.9,1.7-3.1,1.6
			c-0.1,0-0.3,0-0.4,0c-0.5-0.1-1.1-0.3-1.4-1c-2.5-4.9-0.7-8.9-0.7-8.9s6.8-1.9,7.9,0.1C539,5.8,538,8.6,537.2,10.4z"/>
		<path class="st41" d="M530.4,4.2c0,0-0.6,0-0.8-1.2c-0.2-1.2,0.2-1.5,0.2-1.5s2.8-1.2,3.8-1.3c1-0.2,3.5-0.3,4.1,0.4
			c0,0,1.4-0.3,1.8,2c0.6,3.8-2.1,7.4-2.1,7.4s0-2.4-0.5-2.8c-0.5-0.3-1,0.4-1,0.4l-1.1,0.2c0,0,1.7-3.6-0.3-3.8
			C532.4,3.9,531.5,4.4,530.4,4.2z"/>
		<path class="st29" d="M535.9,6.6c0.1-1.1,2.1-1.5,1.9-0.4c-0.1,1.1-1.1,2.2-1.5,2.2C535.8,8.4,535.8,7.4,535.9,6.6z"/>
		<path class="st2" d="M549.4,34.1C549.4,34.1,549.4,34.1,549.4,34.1c0-1.6-0.8-8-2.1-12.2c-0.6-2-0.8-3.5-1-3.6
			c-0.4-0.3-4.2-1.4-5.8-2.1c-0.1,0-0.1,0-0.2-0.1c-0.1-0.1-0.3-0.1-0.4-0.2c-0.1,0-0.1-0.1-0.2-0.1c0,0-0.1,0-0.1,0
			c0,0-0.1,0-0.1,0c0,0,0,0,0,0c-0.1,0.2-0.9,1-1.8,2.3c-1.7,2.4-3.8,6.2-3.5,9.7c0.1,1.1,0.2,2.8,0.5,4.6c0,0.2,0,0.3,0.1,0.5
			c0.1,0.4,0.1,0.8,0.2,1.3c0,0.3,0.1,0.5,0.1,0.8c0.4,2.7,1.8,4.6,3,6.8c0,0,0,0,0,0.1c0,0,0,0,0,0c0,0,0.1,0.1,0.1,0.1
			c0,0.1,0.1,0.2,0.1,0.2c0,0,0,0.1,0.1,0.1c0.2,0.4,0.5,0.9,0.7,1.4c0.1,0.3,0.3,0.6,0.4,0.9c0,0,0,0.1,0,0.1c0,0,0.2,0.5,0.5,1.2
			c0.1,0.2,0.2,0.5,0.3,0.8c0.1,0.2,0.2,0.4,0.2,0.5c0.1,0.2,0.1,0.3,0.2,0.5c0.1,0.3,0.3,0.6,0.3,0.8c0.1,0.1,0.1,0.2,0.1,0.3
			c0.4,1.1,0.7,1.9,0.9,2.2c0.1,0.2,0.1,0.2,0.1,0.2l4.2-2.3c0.8-0.4,0.4-2.6,0.1-3.4c-0.3-0.7-0.6-1.5-1-2.2
			c-0.2-0.3-0.3-0.6-0.5-1c1.3-2.3,2.7-4.7,3.5-6.3C549.1,35.1,549.4,34.3,549.4,34.1z M542.7,27.5
			C542.7,27.5,542.7,27.5,542.7,27.5C542.7,27.5,542.7,27.5,542.7,27.5C542.7,27.5,542.7,27.5,542.7,27.5
			C542.7,27.5,542.7,27.4,542.7,27.5C542.7,27.4,542.7,27.4,542.7,27.5C542.7,27.4,542.7,27.4,542.7,27.5c0-0.1,2.1,3.1,1.9,5.9
			c0,0.4-0.5,1.5-1.1,2.9c0,0,0,0,0,0c-0.2,0.5-0.5,1.1-0.8,1.6c0,0,0,0,0-0.1c-0.4-1-0.6-1.9-0.6-2.6
			C542.1,35.3,542.3,29.2,542.7,27.5z"/>
		<path class="st2" d="M510.7,29.5l9.6,2.1l4.6-11.9c0.1-0.1,1.4-0.8,2.3-1.2c0.9-0.4,2-1,3.1-1.4c0.5-0.2,0.9-0.4,1.3-0.6l0,0
			c0,0-0.6,1.9-1.3,6.6v0c0,0.2,0,0.3-0.1,0.5c0,0,0,0,0,0.1c0,0.1,0,0.2,0,0.3c0,0,0,0,0,0c0,0.1,0,0.2,0,0.2
			c0,0.2-0.1,0.4-0.1,0.6c-0.3,2.3-0.8,6.2-1.2,10.1v0c-0.3,3.1-1.1,6.3-1.4,8.7c0,0,0,0,0,0c0,0.5-0.2,1.1-0.3,1.8
			c0,0.1,0,0.2-0.1,0.2c-0.7,3-2.1,7.2-2.1,7.2l-0.4-0.4l-1.2-1.1c-0.3-0.3-0.4-0.6-0.3-1c0.7-2.1,2.9-9.6,3.3-14.9c0,0,0,0,0,0
			c0.1-1.7-0.4-3.2-0.6-4.7c0,0,0,0,0,0c-0.2,0.7-0.5,1.4-0.8,2.1c-0.7,1.9-1.4,3.6-1.7,3.7c-0.7,0.2-13.3-3.2-13.4-3.7L510.7,29.5z
			"/>
		<path class="st42" d="M538.4,21.1l-2,1.1l0.8,0.9L535,35c-0.5-2.8-0.7-5.5-0.8-7.1c-0.5-5.5,4.9-11.6,5.3-12
			c0.3,0.1,0.5,0.2,0.8,0.3L538.4,21.1z"/>
		<path class="st42" d="M531.5,16.4c0,0-0.7,2.4-1.6,8.3c-0.3,2.3-0.8,6.2-1.2,10.1l-0.5-11.3l0.9-1l-0.8-1l1.8-4.5
			C530.6,16.8,531.1,16.6,531.5,16.4L531.5,16.4z"/>
		<path class="st43" d="M539.6,15.9l-1.6-1c0,0,0,0.9-4.1,3.2l1.1,3.2L539.6,15.9z"/>
		<path class="st43" d="M532.8,15.4c0,0,0.1,1,1.1,2.8l-2.2,2.9l-0.2-4.7L532.8,15.4z"/>
		<path class="st0" d="M533.9,18.2c0,0,0.4,1.7,0.3,2.2c0,0-0.9,0.3-1.6-0.1C532.6,20.3,533,19.1,533.9,18.2z"/>
		<path class="st44" d="M531.7,43.1c-0.2-1.2,0-4.9,0-5l0.2,0c0,0-0.2,3.8,0,5L531.7,43.1z"/>
		<path class="st45" d="M533.4,42.5c0,0-1.9,0.2-2.6,0.4l0.1,2.2l2.5-0.3L533.4,42.5z"/>
		<path class="st0" d="M532.9,20.1c0,0-2.2,5.5-1.8,11.6c0.4,6.4,1,8.7,1,8.7l1.3,1.7L534,40c0,0-1.8-8.1-0.6-16
			c0.2-1.4,0.5-4.1,0.5-4.1L532.9,20.1z"/>
		<path class="st29" d="M539.5,46c0,0-0.5,0.9-0.9,1.1c-0.5,0.2-1.1,0.9-1.1,0.9l3.3,1.7c0,0,0.9-1.7,0.9-2.8
			C541.6,45.9,539.5,46,539.5,46z"/>
		<path class="st39" d="M539.2,46.1l-0.2,0.4c0,0,2.1,1.5,2.6,1.6l0.2-0.6L539.2,46.1z"/>
		<path class="st46" d="M538.9,46.1c0,0,1.6,1.3,2.9,1.9l4.4-8l-2.3-4.4C543.9,35.6,539,45.4,538.9,46.1z"/>
		<path class="st47" d="M525.7,27.9c-0.1,1.5-0.1,2.8-0.1,2.8s0,0,0,0c0,0,0,0,0,0.1c0,0,0,0,0-0.1c-0.2,0.7-0.5,1.4-0.8,2.1
			c-0.1-0.8-0.1-1.6-0.1-2.2c0.1-4.1,1.4-6.3,1.4-6.3C525.9,24.9,525.8,26.5,525.7,27.9z"/>
		<path class="st47" d="M545.5,43.4l-3.5,4.3l3-5.2C545.2,42.8,545.4,43.1,545.5,43.4z"/>
		<path class="st48" d="M519.8,38h-8.2c-0.6,0-1-0.4-1.2-0.9l-3.5-14.7c-0.2-0.8,0.4-1.5,1.2-1.5h8.2c0.6,0,1,0.4,1.2,0.9l3.5,14.7
			C521.2,37.3,520.6,38,519.8,38z"/>
		<path class="st29" d="M509.8,34c0.4-0.4,1.2-0.6,1.8-1c0.7-0.4,0.1-0.9,0.1-0.9c0.7-0.2,0.6-0.5,0.5-0.8c-0.1-0.3-0.9-0.2-0.9-0.2
			s0.7-0.1,0.9-0.3c0.3-0.1,0.2-0.6-0.2-0.7c-0.4-0.2-2.1,0.3-2.1,0.3s0.3-0.1,1.1-0.6c0.8-0.4,1-0.8,0.5-1c-0.3-0.1-1,0.1-2.3,1
			c-1,0.7-0.9,0.7-0.9,0.7S509.4,34.4,509.8,34z"/>
		<path class="st0" d="M545.1,93.6c0,0-1.9,2.7-1.7,3.2s2.3,0.5,3.6,0c1.2-0.5,1.3-3.7,1.8-5.1c0.2-0.6-0.3-2.3-1-2.4
			c-0.7-0.1-1.5,0.2-1.5,0.2S547.1,91.5,545.1,93.6z"/>
		<path class="st29" d="M546.3,89.5c0,0-0.4,1.2-0.6,2.3c-0.1,0.9-1.4,2.9-1.3,3.1c0.1,0.2,1.7,0.5,2.3-0.2c0.7-0.6,1.1-2.5,1.2-3.6
			c0.1-1,0.3-1.5,0.3-1.5S546.9,88.8,546.3,89.5z"/>
		<path class="st0" d="M562,93.7c0,0-1.9,2.7-1.6,3.1c0.3,0.4,2.3,0.5,3.6,0c1.2-0.5,1.3-3.7,1.8-5.1c0.2-0.6-0.3-2.3-1-2.4
			c-0.7-0.1-1.5,0.3-1.5,0.3S564,91.5,562,93.7z"/>
		<path class="st29" d="M563.3,89.6c0,0-0.1,1.3-0.4,2.2c-0.2,0.9-1.5,2.9-1.5,3.2c0.1,0.2,1.7,0.5,2.3-0.2c0.7-0.6,1.2-2.5,1.2-3.6
			c0.1-1.1-0.1-1.9-0.1-1.9S563.9,88.9,563.3,89.6z"/>
		<path class="st29" d="M553.9,45c0,0-1.7,8.1-2.1,10.2c-0.4,2-1.5,11.9-1.6,13.6c-0.1,1.7-1.7,8-1.7,8.6c0.1,0.6-2.4,12.7-2.4,12.7
			s0.9,0.7,1.7,0.1c0.5-0.3,5.5-11.3,5.5-14.3c0-4.2,2.9-9.6,3.3-10.5c3.5-8.6,2.8-11.3,3.3-11.8s0.5,0.3,0.8,1.6
			c0.3,1.2,0.8,12,1.2,13.3c0.3,1.4,0.1,6,0.3,8.3c0.2,2.3,1,12.8,1,12.8s0.7,1.1,1.6,0c0.2-0.2,1.6-11.7,1.6-14.5
			c0-2.8,0.1-6.6,0.2-7.8c0.7-11.5,2.5-13.1-0.3-21.2C561.2,31,553.9,45,553.9,45z"/>
		<path class="st0" d="M565.1,42.7c0,0,4.8,7,2.7,21.8c0,0-11.3,1.6-17.3-1.9c0,0,2.5-15.3,3.4-17.6
			C554.8,42.6,565.1,42.7,565.1,42.7z"/>
		<path class="st0" d="M548.8,91.5v2.9h-0.4v-2.2L548.8,91.5z"/>
		<path class="st0" d="M565.9,91.5v2.9h-0.4v-2.2L565.9,91.5z"/>
		<path class="st29" d="M559.5,11.9c0,0-3.2,3.2-2.1,7.4c1.1,4.1,2.8,4.2,4.8,2.4c1.9-1.8,3.1-3.7,3.3-5.7
			C565.7,13.8,562.4,9,559.5,11.9z"/>
		<path class="st29" d="M558.9,25.7c0,0,0.5-1.1,0.8-2.3c0.1-0.2,0.1-0.4,0.2-0.7c0.2-0.8,0.2-1.5,0.1-2c-0.5-1.5,3.2-0.5,3.2-0.5
			s-0.7,4,0,5.3C563.8,26.9,558.9,25.7,558.9,25.7z"/>
		<path class="st49" d="M568.2,27.6c-0.6-1.2-1-1.5-2.1-1.9c-0.6-0.2-3.4-0.9-3.4-0.9l-3.4-0.1c0,0-2.3,0.4-4.1,1
			c-1.8,0.6-4.2,4-4.2,4s3.3,7.7,3.9,9.8c0.6,2.2,0.2,5.6,0.2,5.6c3.9,2.1,10.2-0.2,10.2-0.2c-0.5-1.7-0.5-3.7-0.2-5.1
			c0-0.2,0.1-0.3,0.1-0.5c0-0.1,0.1-0.3,0.1-0.6c0,0,0,0,0,0c2.5,0.3,4.8,0.4,4.9-0.1C570.4,36.3,569,29.2,568.2,27.6z M566.5,36.3
			c-0.1,0-0.3,0-0.5,0c0.3-0.8,0.6-1.5,0.6-1.5C566.7,35.3,567.4,36.4,566.5,36.3z"/>
		<path class="st50" d="M560.5,14.2c0,0,1.5,2.8,2.5,3.8c0.9,1,0.8,1.8,0.8,1.8s3.7-4.6,1.1-7.3c-2.6-2.8-6-1.6-7,0.8
			c-1,2.4-0.6,5.3-0.6,5.3S557.3,15.7,560.5,14.2z"/>
		<path class="st50" d="M561.5,11.3c0,0-0.4-2,2.8-2.8c3.2-0.8,4.6,2.9,4.2,5.1c-0.4,2.2-3.1,7.9-1.6,8.7c1.5,0.7,2.1-0.9,2.1-0.9
			s-0.5,2.8-2.5,2.1c-2.1-0.6-1.8-5.2-1.5-7C565.3,14.7,561.5,11.3,561.5,11.3z"/>
		<path class="st34" d="M562.6,21.2c0,0-0.8,1.9-2.9,2.2c0.1-0.2,0.1-0.4,0.2-0.7C559.8,22.7,561,23,562.6,21.2z"/>
		<path class="st51" d="M566.5,34.8c0,0-0.2,0.3-0.6,1.6c-0.4-3.5-0.2-5.4-0.2-5.4C565.8,32.9,566.5,34.8,566.5,34.8z"/>
		<path class="st49" d="M562,10.9c0,0,2.3,0.4,3.4,2.3c0,0-0.2-1.7-1.4-2.1C562.9,10.5,562,10.9,562,10.9z"/>
		<path class="st51" d="M565.2,38.7c-0.1,0.2-0.1,0.4-0.1,0.6c0,0.1-0.1,0.3-0.1,0.5c-1.4-0.8-2.4-1.4-2.4-1.4
			C563,38.5,565.2,38.7,565.2,38.7z"/>
		<path class="st29" d="M562.8,24.8l-4,3.2l0.4-3.4C559.3,24.6,561.6,24.1,562.8,24.8z"/>
		<path class="st52" d="M560,27.5l-1.1,0.6l3.9-3.9L560,27.5z"/>
		<path class="st53" d="M565.5,38.5c-0.5,2.3,1.5,7.4,1.5,7.4l-4,1.3c-0.6,0.2-1.2-0.2-1.3-0.8c-0.5-2.5-1.8-8.7-1.9-12.1
			c-0.2-4.4,3-9.5,3-9.5c5.6,1,4.1,9.5,4.1,9.5s-0.2,0.5-0.5,1.4c-0.1,0.2-0.1,0.4-0.2,0.7C565.9,37,565.6,37.7,565.5,38.5z"/>
		<path class="st53" d="M558.9,24.8l0.1-0.2c0,0-2.9,0.4-4.4,1.2c-1.5,0.7-4.3,4.5-4.3,4.5l3.7,4.9c0,3.7-0.6,10.4-0.6,10.4l1.7,1
			c0.5,0.3,1-0.1,1-0.6c0-2.5,0.2-8.5,0.2-11.4c0.1-3.7,2.7-9.8,2.7-9.8C559,24.8,558.9,24.8,558.9,24.8z"/>
		<path class="st29" d="M553.6,42.3c0,0,2.8,0.1,3.2,0c0.4-0.1,3.3-1.4,3.5-2.6c0.2-1.2-6.7,1.1-6.7,1.1V42.3z"/>
		<path class="st54" d="M562.2,38.5L551,37.1l5.1,4.1L562.2,38.5z"/>
		<path class="st49" d="M556.1,41.3l6.2-2.1v-0.7l-6.4,2L556.1,41.3z"/>
		<path class="st29" d="M559,36.4c0,0-0.9,0-1.5-0.1c-0.4-0.1-1.4,0-1.7,0.3c-0.3,0.2-1.1,1.8-1.2,1.9c-0.2,0.1,0.1,0.3,0.3,0.2
			c0,0,0.2,0.7,0.9,0.4c0.6-0.3,1-0.8,1.3-0.9c0.3-0.1,2.2-0.6,2.2-0.6S559.4,36.2,559,36.4z"/>
		<path class="st55" d="M559.5,24l-2.1,3.4l-1,0.7l2.4-3.4L559.5,24z"/>
		<path class="st52" d="M557.3,27.4l1.5,0.7l0.4-3.4l0.2-0.6L557.3,27.4z"/>
		<path class="st56" d="M554,40.7c0,0-0.1,1.4,0,1.7c0,0-6.9-0.7-7.6-1.7c-0.6-1-0.6-2.2-0.6-2.2L554,40.7z"/>
		<path class="st49" d="M556.1,41.3l-3.3-12.2l-12.5-1.3l3.4,11.2L556.1,41.3z"/>
		<path class="st55" d="M562.8,24.2l-2.8,3.3l1.5,1.3l1.6-4L562.8,24.2z"/>
		<path class="st2" d="M566.4,35.4l-0.1,0.3c-0.1,0.2-0.1,0.4-0.2,0.7c-0.5,0.2-5.1-0.2-5.1-0.2S564.8,35.3,566.4,35.4z"/>
		<path class="st53" d="M566.1,36.2c-0.7-0.1-2-0.1-3-0.1c-1.5,0-4.2,0.2-4.2,0.2l0.3,1.7c0,0,4.7,0.8,7.3,0.9c0,0,3.4,0.4,3.6-0.1
			c0.3-0.5-0.1-3.7-0.6-6.7c-0.5-2.9-1.1-4.6-1.8-5.5c-0.7-0.9-4.2-1.6-4.2-1.6l3,9.9c0,0,0.4,0.9,0.4,1.3c0,0.1-0.1,0.2-0.2,0.2
			c-0.1,0-0.2,0-0.5,0L566.1,36.2z"/>
	</g>
	<path class="st1" d="M94.5,262c18.9,19.3,69.7-8.9,55.1-49.2c-14.6-40.3-29-12.5-62.3-50.3c-18-20.4-37.8-33.2-74.4,18.6
		c-23.5,33.2-12.1,95.6,12.1,93.8C49.2,273.1,54.4,221.1,94.5,262z"/>
	<path class="st1" d="M256.3,154.4c-22.6-18.1-74.7,18.2-54.5,59.2c20.3,41.1,32.9,9.7,73.3,45.8c21.8,19.5,44.7,30.6,78.8-29.1
		c21.9-38.2,2.7-103.2-23.4-98.3C304.3,137,304.4,192.9,256.3,154.4z"/>
	<path class="st1" d="M552.2,203.7c27.7-5.9,25.4-61.3-20.4-69.3c-45.8-8-26.1,17.5-78.6,26.1c-28.4,4.7-50.2,14.5-18.3,70
		c20.4,35.6,85.8,57.1,95.8,36.4C540.8,246.2,493.4,216.3,552.2,203.7z"/>
</g>
</svg>
