<?xml version="1.0" encoding="utf-8"?>
<!-- Generator: Adobe Illustrator 24.0.1, SVG Export Plug-In . SVG Version: 6.00 Build 0)  -->
<svg version="1.1" id="Слой_1" xmlns="http://www.w3.org/2000/svg" xmlns:xlink="http://www.w3.org/1999/xlink" x="0px" y="0px"
	 viewBox="0 0 151.5 167.2" style="enable-background:new 0 0 151.5 167.2;" xml:space="preserve">
<style type="text/css">
	.st0{fill:#FFFFFF;}
	.st1{fill:#FE5F5F;}
	.st2{fill:#3865A7;}
	.st3{fill:#F1F2F2;}
</style>
<path class="st1" d="M146.1,0.5l-4.9,4.4l4.9,4.4l4.9-4.4L146.1,0.5z"/>
<g>
	<path class="st3" d="M129.6,57.4l-11.1,3l3.3,12.4l11.1-3L129.6,57.4z"/>
	<path class="st3" d="M133.4,72.5l-11.1,3l3.3,12.4l11.1-3L133.4,72.5z"/>
	<path class="st3" d="M147.7,68.4l-11.1,3l3.3,12.4l11.1-3L147.7,68.4z"/>
</g>
<g>
	<path class="st2" d="M38.5,146.4L37.9,131l-16.7,0.3l0.6,15.4L38.5,146.4z"/>
	<path class="st2" d="M17.8,146.7l-0.6-15.4l-16.7,0.3L1.1,147L17.8,146.7z"/>
	<path class="st2" d="M18.6,166.4l-0.6-15.4l-16.7,0.3l0.6,15.4L18.6,166.4z"/>
</g>
<g>
	<path class="st1" d="M0.5,81.7l7.1,7.1l7.1-7.1l-7.1-7.1L0.5,81.7z"/>
	<path class="st1" d="M9.4,72.8l7.1,7.1l7.1-7.1l-7.1-7.1L9.4,72.8z"/>
	<path class="st1" d="M0.5,63.9L7.6,71l7.1-7.1l-7.1-7.1L0.5,63.9z"/>
	<path class="st1" d="M23.5,81.3l7.1,7.1l7.1-7.1l-7.1-7.1L23.5,81.3z"/>
	<path class="st1" d="M32.4,72.4l7.1,7.1l7.1-7.1l-7.1-7.1L32.4,72.4z"/>
	<path class="st1" d="M23.5,63.5l7.1,7.1l7.1-7.1l-7.1-7.1L23.5,63.5z"/>
</g>
<path class="st0" d="M84.5,161.3l-2.9-11.1l11-3L89.8,136l11-3l-5.3-20l-8.8,2.4l2.9,11.1l-11,3l2.9,11.1l0.1,0l-0.1,0l-11,3
	l2.9,11.1l-11,3l2.3,8.9L84.5,161.3z"/>
<g>
	<path class="st2" d="M92.6,86.9l8.2-8.3l-8.8-9l-8.2,8.3L92.6,86.9z"/>
	<path class="st2" d="M81.8,75.6l8.2-8.3l-8.8-9L73,66.6L81.8,75.6z"/>
	<path class="st2" d="M71.4,86.2l8.2-8.3l-8.8-9l-8.2,8.3L71.4,86.2z"/>
</g>
<path class="st2" d="M9.2,23l10.5-4.7l4.8,10.4L35,24l4.8,10.4l18.8-8.6l-3.9-8.3l-10.4,4.7l-4.8-10.4L29,16.5l0,0.1l0-0.1L24.2,6.2
	l-10.5,4.7L8.8,0.5L0.5,4.3L9.2,23z"/>
<path class="st0" d="M129,117.7l6.8,9.3l-9.1,6.9l6.8,9.3l-9.1,6.9l12.3,16.6l7.3-5.5l-6.8-9.2l9.1-6.9l-6.8-9.3l-0.1,0l0.1,0
	l9.1-6.9l-6.8-9.3l9.1-6.9l-5.4-7.4L129,117.7z"/>
<path class="st0" d="M96.8,3.7h-12v2.2h12v3.2l4-4.3l-4-4.3V3.7z"/>
</svg>
