<?xml version="1.0" encoding="utf-8"?>
<!-- Generator: Adobe Illustrator 24.0.1, SVG Export Plug-In . SVG Version: 6.00 Build 0)  -->
<svg version="1.1" id="Слой_1" xmlns="http://www.w3.org/2000/svg" xmlns:xlink="http://www.w3.org/1999/xlink" x="0px" y="0px"
	 viewBox="0 0 38.3 38.3" style="enable-background:new 0 0 38.3 38.3;" xml:space="preserve">
<style type="text/css">
	.st0{fill:#FE5F5F;}
	.st1{fill:#FFFFFF;}
</style>
<circle class="st0" cx="19.2" cy="19.2" r="19.2"/>
<path class="st1" d="M17.2,26.2l1.8,3.3h0l1.8-3.3L19,24.6L17.2,26.2z"/>
<path class="st1" d="M19,10.6c-0.4,0.2-5.3,2.5-5.3,6.1c0,3.1,2.9,7.9,2.9,7.9l2.4-2.1l2.4,2.1c0,0,2.9-4.7,2.9-7.9
	C24.3,13,19.4,10.8,19,10.6z M20.6,21L19,19.6L17.4,21c-0.1-0.2-1.1-2.7-1.1-4.4c0-2.2,2.5-3.5,2.7-3.6c0.2,0.1,2.7,1.3,2.7,3.6
	C21.7,18.3,20.7,20.8,20.6,21z"/>
<path class="st1" d="M24.3,9l-1.8,1.6l1.8,1.6l1.8-1.6L24.3,9z"/>
<path class="st1" d="M20.3,16.6c0,0.6-0.6,1.1-1.2,1.1c-0.7,0-1.2-0.5-1.2-1.1c0-0.6,0.6-1.1,1.2-1.1C19.7,15.5,20.3,16,20.3,16.6z"
	/>
</svg>
