<?xml version="1.0" encoding="utf-8"?>
<!-- Generator: Adobe Illustrator 24.0.1, SVG Export Plug-In . SVG Version: 6.00 Build 0)  -->
<svg version="1.1" id="Слой_1" xmlns="http://www.w3.org/2000/svg" xmlns:xlink="http://www.w3.org/1999/xlink" x="0px" y="0px"
	 viewBox="0 0 208.3 61.9" style="enable-background:new 0 0 208.3 61.9;" xml:space="preserve">
<style type="text/css">
	.st0{fill:#F1F2F2;}
	.st1{fill:#F1F2F2;filter:url(#Adobe_OpacityMaskFilter);}
	.st2{mask:url(#mask0_1_);}
	.st3{fill:#C4C4C4;}
	.st4{fill:none;}
	.st5{fill:none;stroke:#E0E0E0;stroke-width:0.5;}
	.st6{fill:#C4C4C4;filter:url(#Adobe_OpacityMaskFilter_1_);}
	.st7{mask:url(#mask1_1_);}
	.st8{fill:#2A2A2A;}
	.st9{fill:#EC5F62;}
	.st10{fill:#616160;}
	.st11{fill:#FFFFFF;}
</style>
<g>
	<path class="st8" d="M163.5,50.5h-1.2V44h1.1l2.5,3.2l2.4-3.2h1v6.5h-1.2v-4.7l-2.2,3h-0.1l-2.4-3L163.5,50.5L163.5,50.5z"/>
	<path class="st8" d="M121.6,50.5h-1.2v-5.3h-2.3l-0.1,1.1c-0.1,0.9-0.2,1.6-0.3,2.2c-0.1,0.6-0.3,1-0.6,1.3
		c-0.3,0.3-0.5,0.5-0.7,0.6c-0.3,0.1-0.6,0.2-1,0.2l-0.1-1.1c0.1,0,0.2,0,0.3-0.1c0.1-0.1,0.3-0.1,0.4-0.3c0.1-0.1,0.3-0.3,0.4-0.6
		c0.1-0.3,0.2-0.6,0.3-1c0.1-0.5,0.1-0.9,0.2-1.5l0.1-2h4.5L121.6,50.5L121.6,50.5z"/>
	<path class="st8" d="M100.7,44h2v6.5h-1.2v-2.2h-1.2l-1.6,2.2h-1.4l1.9-2.4c-0.4-0.1-0.7-0.3-1-0.7c-0.3-0.3-0.4-0.7-0.4-1.2
		c0-0.7,0.3-1.2,0.7-1.6C99,44.2,99.7,44,100.7,44z M99.1,46.2c0,0.3,0.1,0.6,0.3,0.8c0.3,0.2,0.5,0.3,0.9,0.3h1.3v-2.2h-1
		c-0.5,0-0.9,0.1-1.1,0.3C99.2,45.6,99.1,45.9,99.1,46.2z"/>
	<path class="st8" d="M84.1,50.5V44c0.1,0,0.1,0,0.2,0c0.1,0,0.2,0,0.4,0c0.1,0,0.3,0,0.5,0c0.7,0,1.2,0,1.3,0
		c1.8,0,2.8,0.6,2.8,1.7c0,0.4-0.1,0.7-0.4,1c-0.3,0.3-0.5,0.5-0.9,0.5c1,0.2,1.5,0.7,1.5,1.5c0,1.2-1,1.9-3,1.9c-0.1,0-0.5,0-1.2,0
		c-0.1,0-0.3,0-0.5,0c-0.2,0-0.3,0-0.4,0C84.3,50.5,84.2,50.5,84.1,50.5z M86.6,44.9c-0.3,0-0.7,0-1.3,0.1v1.9h1.4
		c0.4,0,0.7-0.1,1-0.3c0.3-0.2,0.4-0.5,0.4-0.7C88.1,45.2,87.5,44.9,86.6,44.9z M86.7,47.6h-1.4v2c0.7,0,1.1,0.1,1.3,0.1
		c1.1,0,1.6-0.3,1.6-1C88.3,48,87.7,47.6,86.7,47.6z"/>
	<path class="st8" d="M55,45.7l-3.7,4.8H50V44h1.2v4.8L55,44h1.2v6.5H55V45.7z"/>
	<path class="st8" d="M131.9,45.1h-2.4V44h5.9v1.2H133v5.3h-1.2V45.1z"/>
	<path class="st8" d="M113.9,50.5h-1.1v-5.4h-3.5v5.4h-1.2V44h5.8V50.5z"/>
	<path class="st8" d="M171.7,45.4l-0.3-0.9c0.7-0.4,1.4-0.6,2.2-0.6c0.9,0,1.5,0.2,1.9,0.7c0.4,0.5,0.6,1.1,0.6,2v4h-1.1v-0.9
		c-0.5,0.7-1.2,0.9-2.1,0.9c-0.6,0-1-0.2-1.4-0.5c-0.4-0.4-0.5-0.8-0.5-1.4c0-0.7,0.2-1.1,0.7-1.5c0.5-0.4,1-0.5,1.8-0.5
		c0.7,0,1.2,0.1,1.6,0.4c0-0.7-0.1-1.2-0.3-1.6c-0.2-0.3-0.6-0.5-1.2-0.5C173,45,172.3,45.1,171.7,45.4z M173.3,49.6
		c0.7,0,1.2-0.3,1.7-0.8v-0.8c-0.4-0.3-0.9-0.5-1.4-0.5c-0.4,0-0.7,0.1-1,0.3c-0.3,0.2-0.4,0.5-0.4,0.8c0,0.3,0.1,0.6,0.3,0.7
		C172.7,49.5,173,49.6,173.3,49.6z"/>
	<path class="st8" d="M91.6,45.4l-0.3-0.9c0.7-0.4,1.4-0.6,2.2-0.6c0.9,0,1.5,0.2,1.9,0.7c0.4,0.5,0.6,1.1,0.6,2v4h-1.1v-0.9
		c-0.5,0.7-1.2,0.9-2.1,0.9c-0.6,0-1-0.2-1.4-0.5c-0.4-0.4-0.5-0.8-0.5-1.4c0-0.7,0.2-1.1,0.7-1.5c0.5-0.4,1-0.5,1.8-0.5
		c0.7,0,1.2,0.1,1.6,0.4c0-0.7-0.1-1.2-0.3-1.6c-0.2-0.3-0.6-0.5-1.2-0.5C92.8,45,92.2,45.1,91.6,45.4z M93.2,49.6
		c0.7,0,1.2-0.3,1.7-0.8v-0.8c-0.4-0.3-0.9-0.5-1.4-0.5c-0.4,0-0.7,0.1-1,0.3c-0.3,0.2-0.4,0.5-0.4,0.8c0,0.3,0.1,0.6,0.3,0.7
		C92.5,49.5,92.9,49.6,93.2,49.6z"/>
	<path class="st8" d="M76.5,49.7c-0.7-0.7-1-1.4-1-2.4c0-1,0.3-1.8,1-2.4s1.5-1,2.5-1s1.8,0.3,2.5,1c0.7,0.7,1,1.4,1,2.4
		c0,1-0.3,1.8-1,2.4c-0.7,0.7-1.4,1-2.5,1C78,50.6,77.2,50.3,76.5,49.7z M76.8,47.2c0,0.7,0.2,1.2,0.6,1.6c0.4,0.5,1,0.7,1.6,0.7
		s1.2-0.2,1.6-0.7c0.4-0.5,0.7-1,0.7-1.6c0-0.7-0.2-1.2-0.7-1.6c-0.4-0.5-0.9-0.7-1.6-0.7c-0.7,0-1.2,0.2-1.6,0.7
		C77,46.1,76.8,46.6,76.8,47.2z"/>
	<path class="st8" d="M69.1,53.4h-1.2V44h1.2v0.8c0.3-0.3,0.5-0.5,1-0.7c0.4-0.2,0.9-0.3,1.2-0.3c0.9,0,1.6,0.3,2.2,0.9
		c0.5,0.6,0.9,1.4,0.9,2.4c0,1-0.3,1.8-0.9,2.5c-0.6,0.7-1.4,1-2.4,1c-0.8,0-1.4-0.1-1.8-0.5L69.1,53.4L69.1,53.4z M71,45
		c-0.8,0-1.4,0.3-1.9,0.9v3.2c0.5,0.3,1.1,0.5,1.7,0.5c0.7,0,1.2-0.2,1.6-0.7c0.4-0.5,0.6-1,0.6-1.7c0-0.7-0.2-1.2-0.6-1.6
		C72.1,45.1,71.7,45,71,45z"/>
	<path class="st8" d="M155.5,53.4h-1.2V44h1.2v0.8c0.3-0.3,0.5-0.5,1-0.7c0.4-0.2,0.9-0.3,1.2-0.3c0.9,0,1.6,0.3,2.2,0.9
		c0.5,0.6,0.9,1.4,0.9,2.4c0,1-0.3,1.8-0.9,2.5c-0.6,0.7-1.4,1-2.4,1c-0.8,0-1.4-0.1-1.8-0.5L155.5,53.4L155.5,53.4z M157.4,45
		c-0.8,0-1.4,0.3-1.9,0.9v3.2c0.5,0.3,1.1,0.5,1.7,0.5c0.7,0,1.2-0.2,1.6-0.7c0.4-0.5,0.6-1,0.6-1.7c0-0.7-0.2-1.2-0.6-1.6
		C158.6,45.1,158,45,157.4,45z"/>
	<path class="st8" d="M146.8,49.7c-0.7-0.7-1-1.4-1-2.4c0-1,0.3-1.8,1-2.4c0.7-0.7,1.5-1,2.5-1c1,0,1.8,0.3,2.5,1
		c0.7,0.7,1,1.4,1,2.4c0,1-0.3,1.8-1,2.4c-0.7,0.7-1.4,1-2.5,1C148.2,50.6,147.4,50.3,146.8,49.7z M147,47.2c0,0.7,0.2,1.2,0.6,1.6
		c0.4,0.5,1,0.7,1.6,0.7c0.7,0,1.2-0.2,1.6-0.7c0.4-0.5,0.7-1,0.7-1.6c0-0.7-0.2-1.2-0.7-1.6c-0.4-0.5-0.9-0.7-1.6-0.7
		c-0.7,0-1.2,0.2-1.6,0.7C147.2,46.1,147,46.6,147,47.2z"/>
	<path class="st8" d="M124.1,45.4l-0.3-0.9c0.7-0.4,1.4-0.6,2.2-0.6c0.9,0,1.5,0.2,1.9,0.7c0.4,0.5,0.6,1.1,0.6,2v4h-1.1v-0.9
		c-0.5,0.7-1.2,0.9-2.1,0.9c-0.6,0-1-0.2-1.4-0.5c-0.4-0.4-0.5-0.8-0.5-1.4c0-0.7,0.2-1.1,0.7-1.5c0.5-0.4,1-0.5,1.8-0.5
		c0.7,0,1.2,0.1,1.6,0.4c0-0.7-0.1-1.2-0.3-1.6c-0.2-0.3-0.6-0.5-1.2-0.5C125.2,45,124.7,45.1,124.1,45.4z M125.6,49.6
		c0.7,0,1.2-0.3,1.7-0.8v-0.8c-0.4-0.3-0.9-0.5-1.4-0.5c-0.4,0-0.7,0.1-1,0.3c-0.3,0.2-0.4,0.5-0.4,0.8c0,0.3,0.1,0.6,0.3,0.7
		C125,49.5,125.2,49.6,125.6,49.6z"/>
	<path class="st8" d="M47.5,50.5h-8.1V40.4h1.2v8.9H46v-8.9h1.2v8.9h1.4v3h-1.2L47.5,50.5L47.5,50.5z"/>
	<path class="st8" d="M140.9,53.4h-1.2v-2.7h-0.1c-1.1,0-2-0.3-2.6-1c-0.7-0.7-0.9-1.4-0.9-2.4c0-0.9,0.3-1.7,1-2.4
		c0.7-0.7,1.5-1,2.6-1h0.2v-3.5h1.2v3.5h0.2c1,0,1.9,0.3,2.6,1c0.7,0.7,1,1.4,1,2.4c0,1-0.3,1.8-0.9,2.4c-0.6,0.7-1.4,0.9-2.6,0.9
		h-0.2v2.8H140.9z M137.2,47.2c0,0.7,0.2,1.2,0.7,1.7c0.4,0.4,1,0.7,1.7,0.7h0.1V45h-0.2c-0.7,0-1.2,0.2-1.6,0.7
		C137.4,46.1,137.2,46.6,137.2,47.2z M141.1,45h-0.2v4.6h0.1c0.7,0,1.3-0.2,1.7-0.7c0.4-0.4,0.6-1,0.6-1.7c0-0.7-0.2-1.2-0.6-1.6
		C142.3,45.2,141.8,45,141.1,45z"/>
	<path class="st8" d="M62.6,53.4h-1.2v-2.7h-0.1c-1.1,0-2-0.3-2.6-1c-0.7-0.7-0.9-1.4-0.9-2.4c0-0.9,0.3-1.7,1-2.4
		c0.7-0.7,1.5-1,2.6-1h0.2v-3.5h1.2v3.5H63c1,0,1.9,0.3,2.6,1c0.7,0.7,1,1.4,1,2.4c0,1-0.3,1.8-0.9,2.4c-0.6,0.7-1.4,0.9-2.6,0.9
		h-0.2v2.8H62.6z M59,47.2c0,0.7,0.2,1.2,0.7,1.7c0.4,0.4,1,0.7,1.7,0.7h0.1V45h-0.2c-0.7,0-1.2,0.2-1.6,0.7
		C59.2,46.1,59,46.6,59,47.2z M62.8,45h-0.2v4.6h0.1c0.7,0,1.3-0.2,1.7-0.7c0.4-0.4,0.6-1,0.6-1.7c0-0.7-0.2-1.2-0.6-1.6
		C64.1,45.2,63.5,45,62.8,45z"/>
	<path class="st8" d="M38.9,33.9V17.2h5l5,5.7l4.7-5.7h4.9V34h-5.6v-8.3l-4.1,4.6h-0.1l-4.3-4.6v8.2H38.9z"/>
	<path class="st8" d="M60.9,25.5c0-2.5,0.9-4.6,2.6-6.3c1.7-1.7,4-2.5,6.8-2.5c2.8,0,5.1,0.8,6.8,2.5c1.7,1.7,2.6,3.8,2.6,6.3
		s-0.9,4.6-2.6,6.3c-1.7,1.7-3.9,2.5-6.8,2.5c-2.8,0-5.1-0.8-6.8-2.5C61.8,30.2,60.9,28.1,60.9,25.5z M70.2,29.1
		c2,0,3.3-1.4,3.3-3.6c0-2.1-1.4-3.6-3.3-3.6s-3.3,1.4-3.3,3.6C66.9,27.6,68.3,29.1,70.2,29.1z"/>
	<path class="st8" d="M87.5,33.9H82V17.2h5.6v8.8l6-8.8h5.6V34h-5.6v-8.8L87.5,33.9z M89.1,8.9c0,1.4,0.5,2.2,1.6,2.2
		c0.9,0,1.4-0.7,1.4-2.2H97c0,3.7-2.2,6.3-6.3,6.3c-4.4,0-6.4-2.5-6.4-6.3H89.1z"/>
	<path class="st8" d="M169.5,33.9v-7.1h-9.4v7.1h-3V17.2h3V24h9.4v-6.9h3V34L169.5,33.9L169.5,33.9z"/>
	<path class="st8" d="M125,33.9h-3V17.2h3v12.5l9.7-12.5h3V34h-3V21.4L125,33.9z"/>
	<path class="st8" d="M208.3,31.5c-1.4,1.8-3.8,2.8-6.5,2.8c-2.7,0-4.9-0.8-6.6-2.4c-1.6-1.6-2.5-3.7-2.5-6.3c0-2.5,0.9-4.6,2.4-6.2
		c1.6-1.7,3.7-2.5,6.1-2.5c3,0,5.2,0.7,6.6,2.2l-1.4,2.4c-1.2-1.2-2.9-1.8-4.9-1.8c-1.6,0-2.9,0.6-4.1,1.7c-1.1,1.1-1.7,2.5-1.7,4.2
		c0,1.8,0.6,3.3,1.7,4.3c1.2,1.1,2.6,1.6,4.3,1.6c2,0,3.5-0.7,4.9-2.2L208.3,31.5z"/>
	<path class="st8" d="M190.6,32.1c-1.6,1.4-3.7,2.2-6.3,2.2c-2.8,0-4.9-0.8-6.6-2.4c-1.6-1.6-2.5-3.7-2.5-6.3c0-2.5,0.8-4.6,2.3-6.3
		c1.5-1.7,3.7-2.5,6.4-2.5c2.2,0,4.1,0.7,5.6,2.2c1.5,1.4,2.2,3.3,2.2,5.5c0,0.8-0.1,1.4-0.2,2h-12.9c0.3,3.1,2.6,5,5.8,5
		c2.2,0,3.9-0.6,5.2-1.8L190.6,32.1z M178.4,24h10.2c-0.1-2.8-2-4.4-4.9-4.4C180.7,19.6,178.7,21.4,178.4,24z"/>
	<path class="st8" d="M143.1,33.6c-1.4-0.5-2.4-1-2.9-1.6l1.5-2.2c1.4,1.1,3.4,1.8,5,1.8c2.6,0,4.4-1.1,4.4-2.7
		c0-1.4-1.2-2.2-3.3-2.2h-2.9v-2.4h2.6c1.7,0,2.9-1,2.9-2.4c0-1.5-1.4-2.4-3.6-2.4c-1.8,0-3.5,0.7-5,1.8l-1.2-2.3
		c1.4-1.4,3.9-2.2,6.6-2.2c4.1,0,6.3,1.7,6.3,4.5c0,2-1,3.3-3,3.9v0.1c2.2,0.3,3.5,1.9,3.5,3.9c0,3.1-2.9,5-7.1,5
		C145.8,34.3,144.5,34,143.1,33.6z"/>
	<path class="st8" d="M117.6,9.8c-0.6,0.8-1.3,1.4-2.2,1.7c-0.9,0.3-1.9,0.6-3.1,0.7c-1.2,0.2-2.3,0.5-3.3,0.9
		c-2.6,1.2-3.9,3.9-4.3,8.1h0.1c1.1-2.4,3.8-3.9,6.6-3.9c4.8,0,7.8,3.3,7.8,8.4c0,2.4-0.9,4.4-2.4,6.1c-1.6,1.7-3.7,2.5-6.2,2.5
		c-2.8,0-4.9-0.9-6.5-2.8c-1.6-1.9-2.4-4.4-2.4-7.6c0-7.3,2.1-11.8,6.2-13.5c1-0.5,2.1-0.7,3.3-0.9c2.4-0.4,3.7-0.7,4.7-2L117.6,9.8
		z M110.6,31.5c1.6,0,3-0.6,3.9-1.6c1-1.1,1.6-2.4,1.6-4.1c0-3.4-2-5.7-5.4-5.7c-1.5,0-2.8,0.4-3.8,1.2c-1,0.8-1.7,1.8-2,3
		C105,28.7,107.3,31.5,110.6,31.5z"/>
	<path class="st8" d="M9.5,51.9l4.7,9.9h0.1l4.8-9.9l-4.8-4.8L9.5,51.9z"/>
	<path class="st9" d="M14.3,4.8C13.2,5.3,0,12.3,0,23.5c0,9.5,7.8,24,7.8,24l6.5-6.5l6.5,6.5c0,0,7.8-14.4,7.8-24
		C28.5,12.3,15.3,5.3,14.3,4.8z M18.6,36.7l-4.3-4.2L10,36.7C9.8,36.1,7,28.4,7,23.4c0-6.8,6.8-10.6,7.3-10.8
		c0.5,0.2,7.3,4.1,7.3,10.8C21.6,28.4,18.8,36.1,18.6,36.7z"/>
	<path class="st8" d="M17.7,23.1c0,1.8-1.5,3.3-3.3,3.3c-1.8,0-3.3-1.5-3.3-3.3c0-1.8,1.5-3.3,3.3-3.3
		C16.2,19.7,17.7,21.2,17.7,23.1z"/>
	<path class="st8" d="M28.6,0l-4.9,4.9l4.9,4.9l4.9-4.9L28.6,0z"/>
</g>
</svg>
