<?xml version="1.0" encoding="utf-8"?>
<!-- Generator: Adobe Illustrator 24.0.1, SVG Export Plug-In . SVG Version: 6.00 Build 0)  -->
<svg version="1.1" id="Слой_1" xmlns="http://www.w3.org/2000/svg" xmlns:xlink="http://www.w3.org/1999/xlink" x="0px" y="0px"
	 viewBox="0 0 12.5 23" style="enable-background:new 0 0 12.5 23;" xml:space="preserve">
<style type="text/css">
	.st0{fill:#FE5F5F;}
	.st1{fill:#F1F2F2;}
	.st2{fill:#3865A7;}
	.st3{fill:#FFFFFF;}
	.st4{opacity:0.61;}
	.st5{opacity:0.61;fill:#FFFFFF;enable-background:new    ;}
	.st6{fill:#292930;}
	.st7{fill:#C0E4FF;}
	.st8{opacity:0.18;fill:#FFFFFF;enable-background:new    ;}
	.st9{opacity:0.1;fill:#FFFFFF;enable-background:new    ;}
	.st10{fill:#3A93FB;}
	.st11{opacity:0.93;fill:#FFFFFF;enable-background:new    ;}
	.st12{fill:#9FBFFF;}
	.st13{fill:#1B1B25;}
	.st14{fill:#101011;}
	.st15{fill:#282830;}
	.st16{opacity:0.89;fill:#FFFFFF;enable-background:new    ;}
	.st17{opacity:0.41;}
	.st18{opacity:0.81;}
	.st19{opacity:0.81;fill:#9FBFFF;enable-background:new    ;}
	.st20{fill:#AA0D0D;}
	.st21{fill:#50336E;}
	.st22{fill:#D9A78B;}
	.st23{fill:#B68B73;}
	.st24{fill:#3864A7;}
	.st25{fill:#073D8E;}
	.st26{fill:#073D8D;}
	.st27{fill:#E41717;}
	.st28{fill:#454240;}
	.st29{fill:#E7A585;}
	.st30{fill:#4F5587;}
	.st31{fill:#ECEBEB;}
	.st32{fill:#474D7C;}
	.st33{fill:#20233A;}
	.st34{fill:#A4775F;}
	.st35{fill:#48484D;}
	.st36{fill:#353A3D;}
	.st37{fill:#82807F;}
	.st38{fill:#2D3132;}
	.st39{fill:#DDCAC3;}
	.st40{fill:#495055;}
	.st41{fill:#434343;}
	.st42{fill:#4D6C9E;}
	.st43{fill:#F3E1D8;}
	.st44{fill:#AD9F99;}
	.st45{fill:#68737A;}
	.st46{fill:#597EB8;}
	.st47{fill:#2F4261;}
	.st48{fill:#313555;}
	.st49{fill:#EBD9D2;}
	.st50{fill:#D28853;}
	.st51{fill:#CFBDB7;}
	.st52{fill:#D5C4BD;}
	.st53{fill:#7099D8;}
	.st54{fill:#B5A5A0;}
	.st55{fill:#F8E5DD;}
	.st56{fill:#F09E4A;}
</style>
<g>
	<path class="st3" d="M3.5,19.3L5.3,23h0l1.8-3.7l-1.8-1.8L3.5,19.3z"/>
	<path class="st3" d="M5.3,1.8C4.9,2,0,4.5,0,8.7c0,3.5,2.9,8.9,2.9,8.9l2.4-2.4l2.4,2.4c0,0,2.9-5.3,2.9-8.9
		C10.6,4.5,5.7,2,5.3,1.8z M6.9,13.5L5.3,12l-1.6,1.6c-0.1-0.2-1.1-3.1-1.1-4.9c0-2.5,2.5-3.9,2.7-4c0.2,0.1,2.7,1.5,2.7,4
		C8.1,10.5,7,13.3,6.9,13.5z"/>
	<path class="st3" d="M10.6,0L8.8,1.8l1.8,1.8l1.8-1.8L10.6,0z"/>
	<path class="st3" d="M6.6,8.6c0,0.7-0.6,1.2-1.2,1.2S4.1,9.2,4.1,8.6s0.6-1.2,1.2-1.2S6.6,7.9,6.6,8.6z"/>
</g>
</svg>
